<svg viewBox="0 0 300 300" width="140" height="140" xmlns="http://www.w3.org/2000/svg"><g style="color: rgb(237, 29, 36);"><g id="body"><g fill="currentColor"><path d="M125.5 286.5s-5 5-4 15l83 1s-2-19-13-22-16-1.95-16-1.95h-.39l.39 3.95s-4.64 7.17-15.82 7.08-13.57-2.76-15.87-5.92c0 0-1.3-4.45-.8-6.81-.01 0-7.51.65-17.51 9.65z"></path><path d="M143.5 272.5a4.87 4.87 0 0 0-.19 1.41c0 2.53 1.69 7.59 15.19 7.59 18 0 16-9 16-9s-1-5-13-5-16 1-18 5z"></path><path d="M143.5 282.5s0 6 14 7 18-7 18-7l-1-10s-.12-5-15.56-5-14.44 4-15.44 6a10.07 10.07 0 0 0-.43 4c.07 2.5.43 5 .43 5z"></path></g><path d="M166 276l4 3s6-4 4-7-2.41-2.08-2.41-2.08L171 274z" fill-opacity=".4" fill="#020202"></path><path d="M143.5 282.5s0 6 14 7 18-7 18-7l-1-10c-2.8 12.94-32.54 10.72-31 1a24 24 0 0 0-.43 4c.07 2.5.43 5 .43 5z" fill-opacity=".2"></path><path d="M143.5 272.5a4.87 4.87 0 0 0-.19 1.41c0 2.53 1.69 7.59 15.19 7.59 18 0 16-9 16-9s-1-5-13-5-16 1-18 5z" stroke="#000" stroke-miterlimit="10" fill="#fff" fill-opacity=".4"></path><path d="M143.5 282.5s0 6 14 7 18-7 18-7l-1-10s-.12-5-15.56-5-14.44 4-15.44 6a10.07 10.07 0 0 0-.43 4c.07 2.5.43 5 .43 5z" fill="none" stroke="#000" stroke-miterlimit="10"></path><path d="M125.5 286.5s-5 5-4 15l83 1s-2-19-13-22-16-1.95-16-1.95h-.39l.39 3.95s-4.64 7.17-15.82 7.08-13.57-2.76-15.87-5.92c0 0-1.3-4.45-.8-6.81-.01 0-7.51.65-17.51 9.65z" fill="none" stroke="#000" stroke-miterlimit="10"></path><path d="M134.5 281.5s5-1 3 2-7 4-9 9a17.55 17.55 0 0 0-1.2 9.07l-5.8-.07s-1.5-12.91 8.24-18.5a12.58 12.58 0 0 1 4.76-1.5z" fill="#fff" fill-opacity=".4"></path><path d="M168.21 288.58s15.29-5.08 20.29-1.08 5 12 5 14 11 0 11 0-2.7-17.32-10.85-20.16a50.64 50.64 0 0 0-18.15-2.84v4s-5.58 6.17-7.29 6.08z" fill-opacity=".4"></path><path d="M170.33 279.34v7.9s5.17-3.74 5.17-4.74-.94-9.36-.94-9.36.6 4.03-4.23 6.2z" fill-opacity=".4"></path><path d="M143 201s8 21 7 38-2 35-2 35 .5 3.5 10.5 3.5 13-5 13-5 0-37-3-53-8-22-8-22-13 3-17.5 3.5z" fill="#6d6e70" stroke="#000" stroke-miterlimit="10"></path><path d="M153.89 199s6.61 15.53 8.61 28.53 4 24 4 33v15.63s5-1.63 5-3.63 1.23-37.53-5.39-62.77c0 0-3.61-10.23-5.61-12.23z" fill-opacity=".2"></path><path d="M150 226.5s14.89 2.35 18.24-8.32M150.5 237.5s1 4 8 3 11-4 12-6M149.63 250.63s.88 3.88 6.88 3.88 13.49-3.51 14.73-5.77M147.5 213.5s1 2 6 2 12.85-4.58 12.43-6.29M149 262.5s0 5 8.18 4 12.77-3.62 14.06-6.31" fill="none" stroke="#000" stroke-miterlimit="10"></path></g><g id="face"><path d="M212.5 90.5s-19.5-20.5-55-12c-31 8-61 14-64 60a122.71 122.71 0 0 0 4 35c5 19 11 42 12 45 0 0 8 9 25 9s56-10 56-10 11-5 12-6-20-60-11-86c0 0 3-7 14-8s14 0 14 0-2-21-7-27z" fill="currentColor"></path><path d="M130.5 88.5s-9 6-12 9-16 15-18 28 2 38 4 46 5 21 4 26-2.93 6.66-2.93 6.66-6.07-20.66-8.07-30.66-6-27-1.52-51 34.52-37 34.52-34z" fill="#fff" fill-opacity=".4"></path><path d="M212.5 90.5s-18.25-20.21-55-12c-31.25 7-61 14-64 60a122.71 122.71 0 0 0 4 35c5 19 11 42 12 45 0 0 8 9 25 9s56-10 56-10 11-5 12-6-20-60-11-86c0 0 3-7 14-8s14 0 14 0-2-21-7-27z" stroke="#000" stroke-linecap="round" stroke-linejoin="round" fill="none"></path><path d="M212.5 89.5s-18-19-55-12c-31.23 7.06-61 14-64 60a122.71 122.71 0 0 0 4 35c5 19 11 42 12 45 0 0 8 9 25 9s56-10 56-10 11-5 12-6-20-60-11-86c0 0 3-7 14-8s14 0 14 0-2-21-7-27z" stroke="#000" stroke-linecap="round" stroke-linejoin="round" fill="none"></path><path d="M209.5 92.5s-15 0-21 6-16 16-13 41 12 65 12 65l3 13 12-6s-22.77-76.47-7.39-90.23c0 0 2.39-4.77 24.39-3.77 0 0-.4-21-5.7-25z" fill-opacity=".2" stroke="#000" stroke-linecap="round" stroke-linejoin="round"></path><circle cx="211" cy="103" r="1.5"></circle><circle cx="195.5" cy="207.5" r="1.5"></circle><circle cx="182.5" cy="213.5" r="1.5"></circle><circle cx="165.5" cy="217.5" r="1.5"></circle><circle cx="146.5" cy="220.5" r="1.5"></circle><circle cx="129.5" cy="220.5" r="1.5"></circle><circle cx="114.5" cy="216.5" r="1.5"></circle></g><g id="eyes"><path d="M110 135s-1.5 6.5.5 6.5h45v-6s0-2-3-2h-38c-3 0-4 0-4.5 1.5z" fill="currentColor"></path><path d="M110 135s-1.5 6.5.5 6.5h45v-6s0-2-3-2h-38c-3 0-4 0-4.5 1.5z" stroke="#000" fill-opacity=".4" stroke-miterlimit="10"></path><path d="M110.83 133.88a25.17 25.17 0 0 0 2.67 4.62c1 1 5 0 9 0h31s2-.12 2 .94v-3.94s0-2-3-2h-39.19z" stroke-width=".5" fill="#461917" stroke-linecap="round" stroke-linejoin="round" stroke="#000"></path><path stroke-width=".75" fill="#461917" stroke-linecap="round" stroke-linejoin="round" stroke="#000" d="M113.5 138.5l-3.6 2.71"></path></g><g id="mouth"><path d="M148 175s-6.5.5-12.5 1.5a83.3 83.3 0 0 1-12 1v14c0 2 3 13 13 12s13-7 13-11-1-17-1-17 0-1-.5-.5z" fill="currentColor"></path><path d="M148 175s-6.5.5-12.5 1.5a83.3 83.3 0 0 1-12 1v14c0 2 3 13 13 12s13-7 13-11-1-17-1-17 0-1-.5-.5z" stroke="#000" stroke-miterlimit="10" fill-opacity=".4"></path><path d="M129.59 177.21L130 191s1 7 7 8 12-.83 12.5-4.92-1-19.58-1-19.58l-10.88 1.67c-2.12.33-8.03 1.04-8.03 1.04z" fill="#f6921e" stroke="#000" stroke-miterlimit="10"></path><path d="M137.25 176.19l.22 22.88s-7-.57-7.39-7.64c-.58-4.93-.58-13.93-.58-13.93z" fill="#f9ec31" stroke-width=".75" stroke="#000" stroke-miterlimit="10"></path><path d="M129.59 177.21L130 191s1 7 7 8 12-.83 12.5-4.92-1-19.58-1-19.58l-10.88 1.67c-2.12.33-8.03 1.04-8.03 1.04z" fill="none" stroke="#000" stroke-miterlimit="10"></path></g><g id="accessory"><g fill="currentColor"><path d="M128.5 86.5a3.49 3.49 0 0 0-1 2v3s3 3 9 3 12-4 12-4v-5s-1-1-6-1-11 0-14 2zM173.5 21.5l-35 17s-.57 2.41.22 3.71l.78 1.29 37-18s2-5-3-4zM96.5 58.5s-2 2-1 3 3 0 3 0l33.66-15.9a6.44 6.44 0 0 1-.66-3.1z"></path><path d="M134.5 47.5l-1 37a4.33 4.33 0 0 0 4 2 7.65 7.65 0 0 0 5-2l-2-40s-5 0-6 3z"></path><path d="M136.5 38.5l-4 2a3.76 3.76 0 0 0-.81 1.55 5.34 5.34 0 0 0-.19 1.45c0 2 2 4 3 4 0 0-.17-.54 1.42-1.77a8.26 8.26 0 0 1 4.32-1.22h.26s-2-2-2-3v-3z"></path></g><path d="M134.5 47.5l-1 37a4.33 4.33 0 0 0 4 2 7.65 7.65 0 0 0 5-2l-2-40s-5 0-6 3z" stroke-linejoin="round" stroke-linecap="round" stroke="#000" fill="none"></path><path d="M128.5 87.5s0 2 6 2 11-1 13-3c.48-.55.5-1.75-2.25-1.87h-3.15a6.77 6.77 0 0 1-4.1 1.8c-3.5.1-4.31-1.6-4.31-1.6s-5.19.67-5.19 2.67z" stroke-width=".75" fill-opacity=".2" fill="#fff" stroke-linejoin="round" stroke-linecap="round" stroke="#000"></path><path d="M128.5 86.5a3.49 3.49 0 0 0-1 2v3s3 3 9 3 12-4 12-4v-5s-.8-1-5.8-1a7.15 7.15 0 0 1-4.57 2c-1.63 0-4.17 0-4.63-1.72a10.71 10.71 0 0 0-5 1.72z" stroke-linejoin="round" stroke-linecap="round" stroke="#000" fill="none"></path><path d="M128.5 86.5a3.49 3.49 0 0 0-1 2v3s3 3 9 3 12-4 12-4v-5c-.63-.65-1.9-1.15-6-1a6.16 6.16 0 0 1-4.17 1.8c-3.83.2-4.41-1.46-4.41-1.46s-4.42.66-5.42 1.66z" stroke-width=".75" stroke-linejoin="round" stroke-linecap="round" stroke="#000" fill="none"></path><path d="M136.5 38.5l-4 2a3.76 3.76 0 0 0-.81 1.55 5.34 5.34 0 0 0-.19 1.45c0 2 2 4 3 4 0 0-.17-.54 1.42-1.77a8.26 8.26 0 0 1 4.32-1.22h.26s-2-2-2-3v-3z" stroke-linejoin="round" stroke-linecap="round" stroke="#000" fill="none"></path><path d="M96.5 58.5s-2 2-1 3 3 0 3 0l33.8-15.6a7.45 7.45 0 0 1-.8-3.4zM173.5 21.5l-35 17s-.57 2.41.22 3.71l.78 1.29 37-18c1.02.02 2.99-4.97-3-4z" fill-opacity=".2" fill="#fff" stroke-linejoin="round" stroke-linecap="round" stroke="#000"></path><circle cx="175.5" cy="23.5" r="2" fill-opacity=".2" stroke-linejoin="round" stroke-linecap="round" stroke="#000"></circle><path d="M137.5 5.5s-2 0 1 2 32 15 32 15l2-1-33-15zM56.72 44a1.7 1.7 0 0 0 1.2 1.19l38.37 13.64 1.89-1.2L58.81 44.1s-2.37-1.1-2.09-.1zM114.5 17.5s-2 0 1 2 32 15 32 15l2-1-33-15zM102 26.53s-2 .12 1.12 1.94S133 40.2 133 40.2l1.91-.77-30.83-12zM177.5 24.19L212 41c1 1 .39 1.37-2 1l-33.5-16.5s.5-.12 1-1.31zM154.91 35.41l35.6 14.34s1.49 1.25-1.93 1.13L154 36.79zM102.89 59.02l31.45 9.67-.69 1.29-32.65-10 1.89-.96zM142 42.54l35.55 13c2.4.9.47 2.47-2 1.19L140.2 43.79z"></path><path d="M136 38.75a5.37 5.37 0 0 0-.5 2.75c0 2 2.22 3.37 2.22 3.37l1.8 40.84 4.48 2.63v4l4.46-1.89v-5a35.36 35.36 0 0 0-6-1l-2-40a3.7 3.7 0 0 1-2-3v-3z" fill-opacity=".2"></path><path d="M119.5 47.5l-32-12s-3-1-4 1 0 3 2 4 27 10 27 10M116.05 49.09l-32.1-11.58" stroke-width="1.5" stroke-linejoin="round" stroke-linecap="round" stroke="#000" fill="none"></path><path stroke-width="1.5" stroke-linejoin="round" stroke="#000" fill="none" d="M125.5 49.2l8.86 3.37"></path><path stroke-miterlimit="10" stroke-width="1.5" stroke="#000" fill="none" d="M117.9 52.66L134 59M121.42 50.93l12.85 4.9M141 54.57L158 62s4 2 3 4-5 1-6 1-13.65-5.5-13.65-5.5"></path><path stroke-width="1.5" stroke-linejoin="round" stroke="#000" fill="none" d="M141.18 58.12l19.32 8.38"></path></g></g></svg>