<svg viewBox="0 0 300 300" width="140" height="140" xmlns="http://www.w3.org/2000/svg"><g style="color: rgb(39, 168, 224);"><g id="body"><g fill="currentColor"><path d="M106 247.52s-34.47 3-50.47 32c0 0-5 9-6 23h27s.9-29.98 29.47-55z"></path><path d="M226.5 236.5s-6-10-26-12-56-2-81 13-43 44-43 65h115s3-31 22-53c0 0 8.88-7.45 14.44-9.22 0 0 .56-.78-1.44-3.78z"></path><path d="M286.5 302.5s4-50-16-59-44-8-57 6-22 43-22 53z"></path></g><path d="M91.18 264s5.32.48 3.32 9.48-5 7-7 17-2.5 12-2.5 12h-8.5s-.65-16.94 14.68-38.48z" fill="#fff" fill-opacity=".4"></path><path d="M286.5 302.5s4-50-16-59-44-8-57 6-22 43-22 53z" stroke-width="1.2" stroke="#000" stroke-miterlimit="10" fill="none"></path><path d="M268.5 247.5s-8 8-11 26-2.25 29-2.25 29h31.25s3.84-41.79-12.58-56.9c0 0-2.42-1.1-5.42 1.9z" fill-opacity=".2" stroke="#000" stroke-miterlimit="10"></path><path d="M226.5 236.5s-6-10-26-12-56-2-81 13-43 44-43 65h115s3-31 22-53c0 0 8.88-7.45 14.44-9.22 0 0 .56-.78-1.44-3.78z" stroke-width="1.25" stroke="#000" stroke-miterlimit="10" fill="none"></path><path d="M218.22 229.55s-18.72.95-31.72 20.95-17 37-17.5 52h22.5c-1.42.12 8.08-36.84 16-45.5 10-15.5 21-16.5 21-16.5s.43-4.9-10.28-10.95z" stroke-width=".75" fill-opacity=".2" stroke="#000" stroke-miterlimit="10"></path><path d="M106 247.52s-34.47 3-50.47 32c0 0-5 9-6 23h27s.9-29.98 29.47-55z" stroke="#000" stroke-miterlimit="10" fill="none"></path><path d="M80.61 255.48s2.89 2-6.11 12a94 94 0 0 0-17 26c-3 7-1.75 9-1.75 9H49.5s1.23-32.01 31.11-47z" fill="#fff" fill-opacity=".4"></path><path d="M106 247.52s-34.47 3-50.47 32c0 0-5 9-6 23h27s.9-29.98 29.47-55z" stroke-width="1.2" stroke="#000" stroke-miterlimit="10" fill="none"></path><path d="M153.5 251.5c7.6-.12 26-2 27-14s-27-8-27-8-22 1-22 11 15.85 11.1 22 11z" stroke="#000" stroke-miterlimit="10" fill="none"></path><path d="M138.5 166.5s12 33 4 72c0 0 1 6 12 5s12-5 12-5 6-37-10-75c0 0-11 3-18 3z" fill="#6d6e70" stroke="#000" stroke-miterlimit="10"></path><path d="M161 176a15.59 15.59 0 0 1-7.53 3.51c-5 1-9 1-11.52 0M163.66 185.38c-1.18 2.51-2.36 7.71-20 5.42M166.32 200.74s-4.63 7.77-21.23 3.27M167.42 213.41s-3.73 9.13-22.33 4.11M167.42 227.17s-7.75 9.36-23.34 1.85" stroke="#000" stroke-miterlimit="10" fill="none"></path><circle cx="154.5" cy="247.5" r="1.5"></circle><circle cx="166.5" cy="244.5" r="1.5"></circle><circle cx="174.5" cy="237.5" r="1.5"></circle><circle cx="168.5" cy="232.5" r="1.5"></circle><circle cx="142.5" cy="245.5" r="1.5"></circle><circle cx="137.5" cy="240.5" r="1.5"></circle><path d="M150.5 164.5s10.5 29.5 11 45a328.75 328.75 0 0 1-1 33l6-3c3.29-1.87.5-61.5-10-76z" fill-opacity=".2"></path></g><g id="face"><path d="M144.5 87.5s-51 3-53 55c0 0 0 27 5 42s10 38 10 38l16 16 1 5s13.5-1.5 19-1 14 2 14 2 6-13 19-19 18-8 18-8-4-35-4-52 12-77-45-78z" fill="currentColor"></path><path d="M115.14 97.69s6.36 5.81-2.64 14.81-16 23-13 44 10 40 10 50-.67 18.19-.67 18.19l-2.33-2.19s-15-45-15-76.5 23.64-48.31 23.64-48.31z" fill="#fff" fill-opacity=".4"></path><path d="M144.5 87.5s-51 3-53 55c0 0 0 27 5 42s10 38 10 38l16 16 1 5s9-1 15-1 19 1 19 1a38.06 38.06 0 0 1 18-18c13-6 18-8 18-8s-4-35-4-52 12-77-45-78z" stroke-linecap="round" stroke-linejoin="round" stroke="#000" fill="none"></path><path d="M144.5 86.5s-51 3-53 55c0 0 0 27 5 42s10 38 10 38l16 16 1 5s9-1 15-1 19 1 19 1a38.06 38.06 0 0 1 18-18c13-6 18-8 18-8s-4-35-4-52 12-77-45-78z" stroke-miterlimit="10" stroke="#000" fill="none"></path><path d="M158.5 92.5s20 15 18 32-8 28-12 29a19.27 19.27 0 0 1 8 16c0 11 1 50 1 50l.34 6.83 19.66-8.83s-3.77-39-3.38-63.49 1.38-55.13-31.62-64.82c0 0-3 1.31 0 3.31z" fill-opacity=".2"></path><path d="M124.5 211.5l37-1 4.76 21.18s-8.76 8.82-8.76 11.82c-2 1-10-1-18-1a147.84 147.84 0 0 0-16 1s-5-19 1-32z" stroke-linecap="round" stroke-linejoin="round" stroke="#000" fill="none"></path><path d="M159.5 212.5a19.89 19.89 0 0 0-4 14c1 8 2 17 2 17l9-12-5-21z" stroke-width=".75" fill-opacity=".2" stroke-linecap="round" stroke-linejoin="round" stroke="#000"></path></g><g id="eyes"><g fill="currentColor"><path d="M144.5 141.5s5 9 9 7 13-9 13-9v-9s-2-1-7 0-14 5-14 5-3 2-1 6zM118 141l-5 10s-7.5-2.5-10.5-4.5-4-3-4-6l1-3a13.6 13.6 0 0 1 7 0c4 1 11 2 11 2s1 0 .5 1.5z"></path></g><path d="M144.5 141.5s5 9 9 7 13-9 13-9v-9s-2-1-7 0-14 5-14 5-3 2-1 6z" stroke="#000" stroke-linecap="round" stroke-linejoin="round" fill-opacity=".4"></path><path d="M144.5 139.5s2 2 6 1 10-6 12-7a18.66 18.66 0 0 0 4-3s-3.22-1-9.11.52a67.92 67.92 0 0 0-11.89 4.48s-3 2-1 4z" fill="#461917" stroke-width=".5" stroke="#000" stroke-linecap="round" stroke-linejoin="round"></path><path d="M118 141l-5 10s-7.5-2.5-10.5-4.5-4-3-4-6l1-3a13.6 13.6 0 0 1 7 0 37.46 37.46 0 0 0 8 1s4 1 3.5 2.5z" stroke="#000" stroke-linecap="round" stroke-linejoin="round" fill-opacity=".4"></path><path d="M100.5 139.5l6 3c2 1 9.7 2.6 11.35-1.2s-11.6-4.69-16-4.24c0 0-3-.17-2.67.94a2.3 2.3 0 0 0 1.32 1.5z" fill="#461917" stroke-width=".5" stroke="#000" stroke-linecap="round" stroke-linejoin="round"></path></g><g id="mouth"><path d="M123 183l-1 9a26.74 26.74 0 0 0 3.5.5c2 .44 22 .35 23-1l-1-9s-15-1-24.5.5z" fill="currentColor"></path><path d="M123 183l-1 9a26.74 26.74 0 0 0 3.5.5c2 .44 22 .35 23-1l-1-9s-15-1-24.5.5z" fill-opacity=".4" stroke="#000" stroke-linecap="round" stroke-linejoin="round"></path><path d="M123.5 183.34s3.07 2.66 12.26 2.66 11.24-3.55 11.24-3.55a113.13 113.13 0 0 0-12.2-.28c-5.17.28-10.28.28-11.3 1.17z"></path></g><g id="accessory"><path d="M141.5 79.5s-1 11-1 17v8s-11 3-15 3h-10s-1-11-1-15-2-10 6-13a138 138 0 0 1 14-1c6 0 7 1 7 1z" fill="currentColor"></path><path d="M141.5 79.5s-1 11-1 17v8s-11 3-15 3h-10s-1-11-1-15-2-10 6-13a138 138 0 0 1 14-1c6 0 7 1 7 1z" stroke-linecap="round" stroke-linejoin="round" stroke="#000" fill="none"></path><path d="M116.5 106.5s22-2.67 24-3.33v1.33s-11.42 2.74-13.21 2.87-11.79.13-11.79.13v-.94l1-.06" fill-opacity=".4" stroke-width=".75" stroke-linecap="round" stroke-linejoin="round" stroke="#000"></path><circle cx="137.5" cy="100.5" r="1"></circle><circle cx="139" cy="81" r=".75"></circle><circle cx="117" cy="103" r=".75"></circle><path d="M117 88h3a3.49 3.49 0 0 1 2-1c1 0 9.5-1.5 9.5-1.5s-9 7-10 13v4l7-1s-1-6 2-10a22.28 22.28 0 0 1 7-6v-3l-1-1-18 2-1 1z" fill-opacity=".2" stroke-miterlimit="10" stroke-width=".5" stroke="#000"></path></g></g></svg>