<svg viewBox="0 0 300 300" width="140" height="140" xmlns="http://www.w3.org/2000/svg"><g style="color: rgb(138, 93, 59);"><g id="body"><path d="M160.5 246.5s-14-3-27 13-22 45-22 45h108s-20-35-25-40-18-17-34-18z" fill="currentColor"></path><path d="M121.5 303.5s5-24 10-33 3.28-8.07 7.64-8.53 15.13-1.22 23.75 2.66 8.18 3.25 8.18 3.25l13.12-12.15s-12.68-9.66-26.18-9.44-23.5 12.22-26.5 15.22-14.17 23.45-19.09 40.22z" fill-opacity=".2" fill="#fff"></path><path d="M145.5 261.5s28 1 38 17 13 26 13 26h-86s13.77-34.15 18.39-38.57 15.61-4.43 16.61-4.43z" stroke="#000" stroke-miterlimit="10" fill="none"></path><path d="M121.5 303.5s5-24 10-33 3.28-8.07 7.64-8.53c22.36-1.47 31.93 5.9 31.93 5.9l13.12-12.15s-12.68-9.66-26.18-9.44-23.5 12.22-26.5 15.22-14.17 23.45-19.09 40.22z" fill-opacity=".2" fill="#fff"></path><path d="M160.5 246.5s-14-3-27 13-22 45-22 45h108s-20-35-25-40-18-17-34-18z" stroke="#000" stroke-miterlimit="10" fill="none"></path><path d="M149 192s1 62 2 64a11.16 11.16 0 0 0 9.06 3.21c5.44-.71 6.44-2.71 6.94-5.21 0 0-2.5-48.5-2.5-62.5z" fill="#6d6e70" stroke="#000" stroke-miterlimit="10"></path><path d="M159.5 191.5s3 36 3 40 1 27 1 27l3-1-2-66z" opacity=".2"></path><path d="M164.5 203.5a8.76 8.76 0 0 1-6 2c-4 0-8 0-9-1M165.5 214.5a12.68 12.68 0 0 1-6 2c-3 0-7 .25-10-1.37M165.8 225.5a10.11 10.11 0 0 1-6.3 2c-4 0-7.65-.2-9.82-2.1M166 234.5s-.5 3-5.5 3a64.39 64.39 0 0 1-10.3-1M166.5 245.5s-1 3-6 3a21.51 21.51 0 0 1-10-2" stroke="#000" stroke-miterlimit="10" fill="none"></path><path d="M195.58 301.91H218s-15-26.13-19.27-31.77-12.23-13.64-14.23-14.64l-13 12s8 4.69 10.48 8.84 10.68 16.98 13.6 25.57z" fill-opacity=".2"></path><path d="M193.5 272.5a6.85 6.85 0 0 0-2 8c2 5 8 6 8 6s7-6 15-2 9 7 9 15 14 3 14 3l2-2s4-21-19-31c0 0-11-4-27 3z" fill="#6d6e70" stroke="#000" stroke-miterlimit="10"></path><path d="M196.5 284.5a25.68 25.68 0 0 1 18-5c11 1 16 9 18 17s-4 10-4 10l-5-7s.05-13.88-10-15.44-14 2.44-14 2.44-4 0-3-2z" fill-opacity=".2"></path><path d="M206 268.82a2.89 2.89 0 0 0-1.5 2.68c0 2 .1 8.87 7 11.94M229.44 274.89s-3.94-1.39-5.94 1.61-3.62 9.25-2.81 12.13M223.56 300.34c-.06.16.94-2.84 5.94-2.84a21.66 21.66 0 0 1 10.09 2.37" stroke="#000" stroke-miterlimit="10" fill="none"></path><path d="M127.07 268.36S108.5 263.5 98.5 279.5c0 0-5 9 1 20s7 4 7 4l7-5.25s-6-7.75-2-13.75c0 0 2.75-4.25 8.88-3.12z" fill="#6d6e70" stroke="#000" stroke-miterlimit="10"></path><path d="M119.5 281.5s2-7 1-10a5.45 5.45 0 0 0-3.56-3.62M111.5 284.5a14.54 14.54 0 0 0-8-5c-5-1-5.44.94-5.44.94M111 293.56a10.89 10.89 0 0 0-7.48.94c-4 2-4 5-4 5" stroke="#000" stroke-miterlimit="10" fill="none"></path><path d="M123.53 274.89s-7-2.39-13 .61-9 7-9 12 5 12 7 14 4.83-3.86 4.83-3.86-3.83-5.14-2.83-11.14c0 0 1-6 10-5z" fill-opacity=".2"></path><circle cx="145" cy="266" r="1.5"></circle><circle cx="160.5" cy="268.5" r="1.5"></circle><circle cx="173.5" cy="274.5" r="1.5"></circle><circle cx="182.5" cy="285.5" r="1.5"></circle><circle cx="188.5" cy="296.5" r="1.5"></circle><circle cx="133.5" cy="266.5" r="1.5"></circle></g><g id="face"><path d="M147.5 88.5s-64 9-63 72c0 0-6 51 54 50 0 0 66-6 65-53s-31.5-70.5-56-69z" fill="currentColor"></path><path d="M154.5 90.5s18 12 25 47 2 48-7 55-24.12 17.37-42.56 17.68c0 0 56.6 1.84 70.58-33.42.73-1.85 1.84-5.7 1.84-5.7S185.5 158.5 183.17 137c-1.67-14.45 2.33-24.45 6.49-24.63a7 7 0 0 0-.63-1.08C179.68 98 160 87 154.5 90.5z" fill-opacity=".2"></path><path d="M147.5 87.5s-64 9-63 72c0 0-6 51 54 50 0 0 66-6 65-53s-33-71-56-69z" stroke="#000" stroke-miterlimit="10" fill="none"></path><path d="M147.5 88.5s-64 9-63 72c0 0-6 51 54 50 0 0 66-6 65-53s-32-71-56-69z" stroke="#000" stroke-miterlimit="10" fill="none"></path><path d="M92.22 125.67s2.28 14.83.28 24.83-7.67 21-7.67 21-3.89-23.65 7.39-45.83zM187.5 113.5s-7 10-4 26 12 27.67 18.5 29.83c0 0 5.83-35.17-12.83-57z" stroke-width=".75" fill="#fff" stroke="#000" stroke-miterlimit="10" fill-opacity=".2"></path><path d="M112.5 112.5s-5-1-10 6-6 11-5 13 7 1 11-7 6-10 4-12zM117.5 102.5s-5 4-2 7a6.31 6.31 0 0 0 9 0c2-2 2-6-1-7a10.56 10.56 0 0 0-6 0z" fill-opacity=".4" fill="#fff"></path><circle cx="188" cy="143" r="1.5"></circle><circle cx="193.5" cy="154.5" r="1.5"></circle><circle cx="199.5" cy="161.5" r="1.5"></circle><circle cx="88.5" cy="154.5" r="1.5"></circle><circle cx="89.5" cy="143.5" r="1.5"></circle><circle cx="90.5" cy="133.5" r="1.5"></circle><circle cx="186.5" cy="130.5" r="1.5"></circle><circle cx="190.5" cy="119.5" r="1.5"></circle></g><g id="eyes"><g fill="currentColor"><path d="M110.5 122.5c-4 0-17 2-17 17s10 17 17 17 15-5 15-18-11-16-15-16z"></path><path d="M153.5 121.5c-4 0-17.5 2.5-17.5 17.5s10.5 16.5 17.5 16.5 16-5 16-18c-2.5-15.5-12-16-16-16z"></path></g><path d="M110.5 126.5s-13 0-13 12 10 13 13 13 12-2 12-14.52c0 .02-1-9.48-12-10.48z" stroke-width=".5" stroke="#000" stroke-linecap="round" stroke-linejoin="round" fill-opacity=".2"></path><path d="M154.5 121.5s-20 0-19 18 19 16 19 16 16-2 15-17-11-17-15-17zM110.5 122.5c-4 0-17 2-17 17s10 17 17 17 15-5 15-18-11-16-15-16z" fill-opacity=".4" stroke="#000" stroke-linecap="round" stroke-linejoin="round"></path><path d="M140.1 137.73s-2 13.2 12.18 13.2 14.22-10.15 14.22-13.2-3-12.18-12.18-12.18-14.22 7.1-14.22 12.18z" fill-opacity=".4" stroke-width=".5" stroke="#000" stroke-linecap="round" stroke-linejoin="round"></path><path d="M109 127s-9 1-9 9 2.5 12.5 10.5 12.5 12-5 12-10-5-12-13.5-11.5zM154 126s-10.5.52-11 9.4 4 13.6 11 13.6 12-6.26 12-11.49-4.5-12-12-11.51z" fill="#461917" stroke-width=".5" stroke="#000" stroke-linecap="round" stroke-linejoin="round"></path><g fill="currentColor"><path d="M110.5 122.5c-4 0-17 2-17 17s10 17 17 17 15-5 15-18-11-16-15-16z"></path><path d="M153.5 121.5c-4 0-17.5 2.5-17.5 17.5s10.5 16.5 17.5 16.5 16-5 16-18c-2.5-15.5-12-16-16-16z"></path></g><path d="M110.5 126.5s-13 0-13 12 10 13 13 13 12-2 12-14.52c0 .02-1-9.48-12-10.48z" stroke-width=".5" stroke="#000" stroke-linecap="round" stroke-linejoin="round" fill-opacity=".2"></path><path d="M154.5 121.5s-20 0-19 18 19 16 19 16 16-2 15-17-11-17-15-17zM110.5 122.5c-4 0-17 2-17 17s10 17 17 17 15-5 15-18-11-16-15-16z" fill-opacity=".4" stroke="#000" stroke-linecap="round" stroke-linejoin="round"></path><path d="M140.1 137.73s-2 13.2 12.18 13.2 14.22-10.15 14.22-13.2-3-12.18-12.18-12.18-14.22 7.1-14.22 12.18z" fill-opacity=".4" stroke-width=".5" stroke="#000" stroke-linecap="round" stroke-linejoin="round"></path><path d="M109 127s-9 1-9 9 2.5 12.5 10.5 12.5 12-5 12-10-5-12-13.5-11.5zM154 126s-10.5.52-11 9.4 4 13.6 11 13.6 12-6.26 12-11.49-4.5-12-12-11.51z" fill="#461917" stroke-width=".5" stroke="#000" stroke-linecap="round" stroke-linejoin="round"></path><path d="M110.26 134.06a.92.92 0 0 0-.24.05c-.36.13-1 .61-1 2.31 0 2.36 0 3.54 1.26 3.54s2.51 0 2.51-3.54c-.02-2.36-1.67-2.56-2.53-2.36z" fill="#faaf40"><animate class="robotStart" attributeName="fill" values="#ff0000;#f3e7d9;#ff0000" dur="1s" repeatCount="indefinite" begin="indefinite" id="light-left-eye"></animate></path><path d="M154.26 134.06a.92.92 0 0 0-.24.05c-.36.13-1 .61-1 2.31 0 2.36 0 3.54 1.26 3.54s2.51 0 2.51-3.54c-.02-2.36-1.67-2.56-2.53-2.36z" fill="#faaf40"><animate class="robotStart" attributeName="fill" values="#ff0000;#f3e7d9;#ff0000" dur="1s" repeatCount="indefinite" begin="indefinite" id="light-right-eye"></animate></path></g><g id="mouth"><path d="M126 180a129.54 129.54 0 0 1 3 25 19.93 19.93 0 0 0 10 1 24.23 24.23 0 0 0 8.5-3.5s-4-23-4-25c0 0-6 2-9 2-1.54 0-3.73.13-5.51.26S126 180 126 180z" fill="currentColor"></path><path d="M126 180a129.54 129.54 0 0 1 3 25 19.93 19.93 0 0 0 10 1 24.23 24.23 0 0 0 8.5-3.5s-4-23-4-25c0 0-6 2-9 2-1.54 0-3.73.13-5.51.26S126 180 126 180z" stroke="#000" stroke-linecap="round" stroke-linejoin="round" fill="none"></path><path d="M131.5 190.71a113.49 113.49 0 0 1 1 12.25l-3 1.54s-1-14-2.28-18.07c-.72-2.86-1.15-6.11-1.15-6.11l3.43.18s1 2.05 2 10.21zM129.29 205.11l3.21-1.61a32 32 0 0 0 7-1 53.36 53.36 0 0 0 7.56-2.57l.44 2.57s-4.93 3.27-7 3.14-2.43 2.07-11.21-.53z" stroke-width=".75" fill-opacity=".4" stroke="#000" stroke-linecap="round" stroke-linejoin="round"></path><path d="M131.81 193.42c.93.47 1.84.92 1.69-.92 0 0 0-2 1-2s7-1 7-1a1 1 0 0 1 1 1c0 1 0 3 1 2a3.44 3.44 0 0 1 2.12-1" stroke-width=".75" stroke="#000" stroke-linecap="round" stroke-linejoin="round" fill="none"></path></g><g id="accessory"><path d="M103.5 165.5s11-4 15-6a59.46 59.46 0 0 1 7-3s5 0 6 3 0 5-1 6-23 8-23 8a4.45 4.45 0 0 1-5-2c-3-5 1-6 1-6z" fill="currentColor"></path><path d="M102 167c-1.07 1.3 1.29 6.38 2.64 6.19s6.07.81 4.36-4.12c-1.82-4.07-5.95-3.35-7-2.07z" fill="#fff" fill-opacity=".2"></path><path d="M103.5 165.5s11-4 15-6a59.46 59.46 0 0 1 7-3s5 0 6 3 0 5-1 6-23 8-23 8a4.45 4.45 0 0 1-5-2c-3-5 1-6 1-6z" fill="none" stroke="#000" stroke-linecap="round" stroke-linejoin="round"></path><path d="M106.5 173.5c3-1 3-3 2-5-3-4-6-2-6-2.24M109.1 163.4s4.4.1 5.4 3.1a5.22 5.22 0 0 1-.78 5" stroke-width=".75" fill="none" stroke="#000" stroke-linecap="round" stroke-linejoin="round"></path><circle cx="128" cy="161" r="1"></circle></g></g></svg>