<svg viewBox="0 0 300 300" width="140" height="140" xmlns="http://www.w3.org/2000/svg"><g style="color: rgb(54, 178, 74);"><g id="body"><g fill="currentColor"><path d="M180.45 252.21s-17.95-2.71-29.95 2.29-15 8-16 24c0 0 1 27 1 28s49 1 49 1v-9a27.15 27.15 0 0 1-3-13c0-8 7-6.16 7-6.16s-11.5-.34-11.26-16.09a16.2 16.2 0 0 1 3.21-11.04z"></path><path d="M133.5 277.5s-6.92-1.5-8-5.25l-.68-1.62c-.37-6.66 1.07-12 5.72-15 0 0 5.17-4.37 11.55-4.24 0 0 5.37.13 7.37 3.13 0 0-9 3.6-12 9.3s-3.09 13.32-3 14zM188.5 247.5s-8 2-10 8-3 19 8 23 19-7 19-17-4-16-17-14z"></path></g><path d="M134.5 254.5s3-1 3 0-6 5-7 10 0 8-2 8-4.67.09-2.84-10.45a13 13 0 0 1 8.84-7.55z" fill="#fff" fill-opacity=".4"></path><path d="M133.5 277.5s-6.92-1.5-8-5.25l-.68-1.62c-.37-6.66 1.07-12 5.72-15 0 0 5.17-4.37 11.55-4.24 0 0 5.37.13 7.37 3.13 0 0-9 3.6-12 9.3s-3.09 13.32-3 14z" stroke-miterlimit="10" stroke="#000" fill="none"></path><path d="M189.5 248.5s9 0 9 10-4 16-9 17-7 .77-7 .77a12.77 12.77 0 0 0 8 3.07c5 .16 15-4.84 15-17.84s-7.26-14.64-14.13-14.32-2.87 1.32-1.87 1.32z" fill-opacity=".2"></path><path d="M188.5 247.5s-8 2-10 8-3 19 8 23 19-7 19-17-4-16-17-14z" stroke-miterlimit="10" stroke="#000" fill="none"></path><path d="M201.86 273.17s9.64 10.33 9.64 28.33h-13s2.74-14.31-7.13-22.15a11.59 11.59 0 0 0 10.49-6.18z" fill="#6d6e70" stroke-miterlimit="10" stroke="#000"></path><path d="M197.5 279.5s5 8 6 15 0 9 0 9h8s1.5-10.5-4.74-22.76c0 0-3.26-6.24-5.26-7.24a22 22 0 0 1-4.74 4.65z" fill-opacity=".2"></path><path d="M180.45 252.21s-17.95-2.71-29.95 2.29-15 8-16 24c0 0 1 27 1 28s49 1 49 1v-9a27.15 27.15 0 0 1-3-13c0-8 7-6.16 7-6.16s-11.5-.34-11.26-16.09a16.2 16.2 0 0 1 3.21-11.04z" stroke-miterlimit="10" stroke="#000" fill="none"></path><path d="M169.5 304.5s-7-21 0-42c0 0 3.39-7.79 10.2-10.39l.8.39s-3.64 3.11-3.32 10.06 2.16 14.4 9.74 16.17a5.19 5.19 0 0 0-5 3.77c-1.44 4 .38 11.28 1.47 13.64a13.05 13.05 0 0 1 1.11 4.86z" fill-opacity=".2" stroke-miterlimit="10" stroke="#000"></path><path d="M142.5 259.5a2.19 2.19 0 0 1 3 1q1.5 3-3 9c-3 4-3 14-2 19s2 10 2 13h-7.16s-1.34-17.5-.59-26.24 2.49-12.37 6.12-15.56z" fill="#fff" fill-opacity=".4"></path><path d="M150 254.71s-4.5-4.21-10.5-3.21-14 6-15 15 9 12 10 12c0 0-2-18.58 15.5-23.79z" stroke-miterlimit="10" stroke="#000" fill="none"></path><path d="M130.17 276.81a64.62 64.62 0 0 1-1.51 10.87c-1.2 5.22-3.35 11-7.16 13.82l13.79-.59s-.79-21.41-.79-22.41z" fill="#6d6e70" stroke-miterlimit="10" stroke="#000"></path><path d="M134.5 290.5s-2.86-2.88-5.93-2.44M124 299s5.55-1.48 9 2" stroke-miterlimit="10" stroke="#000" fill="none"></path><path d="M150 192s1 61 2 64c0 0 2 5 10 3 0 0 6-1 6-7 0 0-3.5-40.5-2.5-60.5 0 0-13 0-15.5.5z" fill="#6d6e70" stroke-miterlimit="10" stroke="#000"></path><path d="M164.5 202.5s0 3-5 3-8.56-1-9.28-1.5M165 214.5s-1 2-5.18 2a39.35 39.35 0 0 1-9.38-1.58" stroke-linecap="round" stroke-linejoin="round" stroke="#000" fill="none"></path><path d="M166 224.5s0 2-4.62 3-10.38-1-10.38-1M166 233.5s0 2-3.21 3a16.53 16.53 0 0 1-11.79-1M167 244.5a7 7 0 0 1-5.17 4c-4.13 1-10.48-1.51-10.48-1.51M207 281.6s-4-2.4-12 2.4M211.42 296.16s-2.24-4.33-12.58 1.51" stroke-miterlimit="10" stroke="#000" fill="none"></path><path d="M159 191.5h6.5v10s1 20 .89 29.33a182.26 182.26 0 0 0 1.61 21.92c-.5 4.25-5.5 5.75-5.5 5.75v-2c0-2 1-15 1-23s-4-40-4-40z" fill-opacity=".2"></path></g><g id="face"><path d="M147 88c-20.15-.5-56.5 14.5-56.5 57.5 0 0 1 22 6 41s10 34 10 37c0 0 3 12 25 11s62-15 62-15-2-31-3-49S196.79 89.24 147 88z" fill="currentColor"></path><path d="M147 88c-20.15-.5-56.5 14.5-56.5 57.5 0 0 1 22 6 41s10 34 10 37c0 0 3 12 25 11s62-15 62-15-2-31-3-49S196.79 89.24 147 88z" fill="none" stroke="#000" stroke-linecap="round" stroke-linejoin="round"></path><path d="M147 87c-20.15-.5-56.5 14.5-56.5 57.5 0 0 1 22 6 41s10 34 10 37c0 0 3 12 25 11s62-15 62-15-2-31-3-49S196.79 88.24 147 87z" fill="none" stroke="#000" stroke-linecap="round" stroke-linejoin="round"></path><path d="M135.5 96.5s36-4 45 43c0 0 3 24 3 35s-1 25 1 36l2 11 7-2s-2.53-55.76-3.27-70.88S188.5 90.81 150 88.16c0 0-19.78-1-33.64 8.7 0 0-4.86 4.65.14 2.65s16-3.01 19-3.01z" fill-opacity=".2"></path><path d="M122.5 104.5s-4 1-4 4 2 7 5 6 5-5 4-7-2-4-5-3zM115.5 111.5s-9-6-17 12-1 37-1 37 2 6 8 6 4-9 4-9-4-13-1-24 7-13 7-13 5-5 0-9z" fill="#fff" fill-opacity=".4"></path><circle cx="111" cy="223" r="1.5"></circle><circle cx="125.5" cy="227.5" r="1.5"></circle><circle cx="141.5" cy="226.5" r="1.5"></circle><circle cx="159.5" cy="223.5" r="1.5"></circle><circle cx="175.5" cy="219.5" r="1.5"></circle><circle cx="188.5" cy="214.5" r="1.5"></circle></g><g id="eyes"><path d="M135.5 123.5s-34 1-35 17 23 12 23 12 23-2 28-3 18-5 18-14-8-13-17-13-13 1-17 1z" fill="currentColor"></path><path d="M117.31 152.44c-4.51 0-10.59-.74-13.91-4.27a9.8 9.8 0 0 1-2.41-7.64c1-15.37 34.18-16.52 34.52-16.53 1.61 0 3.25-.16 5.15-.35a107.89 107.89 0 0 1 11.84-.65c8 0 16.5 3.28 16.5 12.5 0 9.71-15.8 13.15-17.6 13.51-4.92 1-27.72 3-27.95 3a42 42 0 0 1-6.14.44z" opacity=".4"></path><path d="M152.5 123.5c7.73 0 16 3.15 16 12 0 7.56-10.81 11.74-17.2 13-4.89 1-27.66 3-27.89 3h-.08a41.19 41.19 0 0 1-6 .43c-4.41 0-10.35-.71-13.54-4.12a9.32 9.32 0 0 1-2.27-7.27c.93-14.91 33.7-16.05 34-16.06 1.65 0 3.3-.17 5.22-.36a107.45 107.45 0 0 1 11.78-.64m0-1c-9 0-13 1-17 1 0 0-34 1-35 17-.67 10.67 9.78 12.44 16.81 12.44a41.73 41.73 0 0 0 6.19-.44s23-2 28-3 18-5 18-14-8-13-17-13z"></path><path d="M106.5 132.5s-2 2-1 6 2 9 16 8a306.78 306.78 0 0 0 31-4c6-1 16-1.5 17-6.25s-2.18-11.89-12.09-13.32-12.93-.11-16.92.23-8.25.45-11.62.89-16.37 2.44-22.37 8.44" stroke-width=".5" stroke-linecap="round" stroke-linejoin="round" stroke="#000" fill="#461917"></path><path d="M134 124s-4 2-4 6 3.5 11.5 10.5 10.5 9-5 9-11-6.58-6.54-6.58-6.54-3.42.54-4.42.54-4.5.5-4.5.5z" fill="#ec1c24" stroke-miterlimit="10" stroke-width=".5" stroke="#000"></path><ellipse cx="140" cy="130.5" rx="2" ry="2.5"></ellipse><path d="M107.5 131.5s-3 2-2 7c1 4 2 9 16 8a306.78 306.78 0 0 0 31-4c6-1 16-1.5 17-6.25s-2.18-11.89-12.09-13.32-12.93-.11-16.92.23-8.25.45-11.62.89-15.37 1.44-21.37 7.44" fill="none" stroke-width=".75" stroke-linecap="round" stroke-linejoin="round" stroke="#000"></path></g><g id="mouth"><path d="M170.5 168.5S151 177 141 179l-1 .2a112 112 0 0 1-32.68 1.74q-1.88-.18-3.82-.44l6 20a51.86 51.86 0 0 0 26 5c15-1 35-7 41-15z" fill="currentColor"></path><path d="M110.5 199.5l2-2s-3-10-4-13-1.87-3.63-1.87-3.63l-3.13-.37 3.38 11.26 2.5 8.33z" stroke="#000" stroke-linecap="round" stroke-linejoin="round" fill-opacity=".4"></path><path d="M118 181s3.13 7.7 4.06 9.85 2.31 5.09 2.12 7.12l.19 4a72.8 72.8 0 0 1 7.93.57C135 203 144 201 144 201a14.36 14.36 0 0 1-.15-3c.15-1-3.27-16.16-3.27-16.16l-1-2.27-4.58.43-9.08 1.13z" fill="#ee4036"></path><path d="M155.48 174.52l3.52 10.63 2 9.85v2s10.25-4.55 12.63-6.27L176 189l-3.63-13.65-1.85-6.79z" fill="#f05a28"></path><path d="M113.5 198.5s2 3 14 4 35-6 35-6 12.06-5.5 13.5-7.73l.47 1.73s-7.38 11-40.69 15c0 0-16.31 1-26.31-5l3-3z" stroke="#000" stroke-linecap="round" stroke-linejoin="round" fill-opacity=".4"></path><path d="M119.94 181.44s2.56 10.06 3.56 13.06a27.84 27.84 0 0 1 .88 7.67s-7.88.33-11.88-4.67l-5-15a5.38 5.38 0 0 0-1-1.7 80.36 80.36 0 0 0 13.44.64zM140.5 181.5c0 .14 4.14 18 3.56 19.5 0 0 15.93-2.76 17.18-4.13 0 0-1.75-10.37-2.75-13.37l-3-9s-7.82 3-10.4 3.47a54.09 54.09 0 0 0-5.58 1.51 6 6 0 0 1 .99 2.02z" fill="#faaf40" stroke-width=".75" stroke="#000" stroke-linecap="round" stroke-linejoin="round"></path><path d="M170.5 168.5S151 177 141 179l-1 .2a112 112 0 0 1-32.68 1.74q-1.88-.18-3.82-.44l6 20a51.86 51.86 0 0 0 26 5c15-1 35-7 41-15z" fill="none" stroke="#000" stroke-linecap="round" stroke-linejoin="round"></path></g><g id="accessory"><path d="M122.5 94.5s4 3 13 3 16-6 16-6a26.39 26.39 0 0 0-1-7c-1-3-10.49-2.87-15.74-1.93s-11.26.93-12.26 3.93z" fill="currentColor"></path><ellipse cx="133" cy="26" rx="7.5" ry="6.5" stroke-miterlimit="10" stroke="#000" fill="#be1e2d"></ellipse><path d="M140 25c.19.68-5.51 8.12-11.57 6.27a8.65 8.65 0 0 0 7.91.53C141 30 140 25 140 25z" fill="#561317"></path><ellipse cx="130.22" cy="22.93" rx="4.46" ry="2.23" transform="matrix(.87 -.5 .5 .87 5.98 68.18)" fill="#ed293b"></ellipse><ellipse cx="133" cy="26" rx="7.5" ry="6.5" stroke-width=".75" fill="none" stroke-miterlimit="10" stroke="#000"></ellipse><path d="M135.5 82.5s-13 1-13 4 9 4 13 4 15-2 15-6-15-2-15-2z" stroke-linecap="round" stroke-linejoin="round" fill-opacity=".2" fill="#fff" stroke-width=".75" stroke="#000"></path><path d="M122.5 94.5s4 3 13 3 16-6 16-6a26.39 26.39 0 0 0-1-7c-1-3-10.49-2.87-15.74-1.93s-11.26.93-12.26 3.93z" stroke-linecap="round" stroke-linejoin="round" fill="none" stroke="#000"></path><path d="M148.19 93.77c.31-1.27-.69-6.27-.69-6.27s-7.41-2.59-8.2-2.3 1.86-.8 2-1.75.23-1.43.23-1.43 3.12 0 5.53.25 3.41 1.47 3.41 2.35l.64 2.58.36 4.29-3 2" fill-opacity=".2"></path><path d="M133 29.24s-7.5 13.21-6.5 28.88a245.78 245.78 0 0 0 3 26.43s0 2 4 2a14 14 0 0 0 7-2 3.4 3.4 0 0 0 1-2c0-1-11-18.6-8-48.94 0 .03 1-5.84-.5-4.37z" fill="#e6e7e8" stroke-miterlimit="10" stroke="#000"></path><path d="M130.5 46.5a94.41 94.41 0 0 0 2 18 145.29 145.29 0 0 0 6 19l.52 1.8s2.48-.8 2.48-2.8c0 0-6.45-14.41-7.23-22.71s-1.77-20.29-.77-26.29c0 0-.08-3.33.21-2.91S130 38 130.5 46.5z" fill="#d0d2d3"></path><path d="M133 29.24s-7.5 13.21-6.5 28.88a245.78 245.78 0 0 0 3 26.43s0 2 4 2a14 14 0 0 0 7-2 3.4 3.4 0 0 0 1-2c0-1-11-18.6-8-48.94 0 .03 1-5.84-.5-4.37z" fill="none" stroke-miterlimit="10" stroke="#000"></path><path d="M126 46s-9 1-9 6 10 5 13 5 12-1 12-6-8-5-8-5" stroke-linecap="round" stroke-linejoin="round" fill="none" stroke="#000"></path></g></g></svg>