<svg viewBox="0 0 300 300" width="140" height="140" xmlns="http://www.w3.org/2000/svg"><g style="color: rgb(145, 38, 142);"><g id="body"><g fill="currentColor"><path d="M158.5 234.5s-59 1-84 42 23 42 23 42l132-13s-5-16 5-27 19-6 19-6-34-41-95-38z"></path><path d="M277.5 301.5c-.33-7.3-4.07-15.56-12-25 0 0-11.5-7.5-25.28-2.69-7.72 4.69-13.72 11.69-11.72 28.69zM74.5 276.5a29.05 29.05 0 0 0-26 16c-9 17 10 17 10 17l8.79-9.5s-2.79-6.5 7.21-23.5z"></path></g><path d="M158.5 234.5s-59 1-84 42 23 42 23 42l132-13s-5-16 5-27 19-7 19-7-34-40-95-37z" stroke-linecap="round" stroke-linejoin="round" stroke="#000" fill="none"></path><path d="M215 245s6.5 1.46-.5 16.46-13 26-10 41 24.32 0 24.32 0-3.6-15.79 7-25.4c12.91-11.65 19.71-3.56 16.64-5.6.04.04-16.97-17.88-37.46-26.46z" fill-opacity=".2"></path><path d="M158.5 234.5s-59 1-84 42 23 42 23 42l132-13s-5-16 5-27c7-9 19-7 19-7s-34-40-95-37z" stroke-linecap="round" stroke-linejoin="round" stroke="#000" fill="none"></path><path d="M62.5 280.5s5 0 0 9-8 11-9 14-6.5-2.33-6.5-2.33-3.23-4.81 5.63-14.74c0 0 4.87-5.93 9.87-5.93z" fill-opacity=".4" fill="#fff"></path><path d="M74.5 276.5a29.05 29.05 0 0 0-26 16c-9 17 10 17 10 17l8.79-9.5s-2.79-6.5 7.21-23.5z" stroke-miterlimit="10" stroke="#000" fill="none"></path><path d="M77.5 301.5s0-19 13-30 16-5 15-2-14 24-14 32-14 0-14 0z" fill-opacity=".4" fill="#fff"></path><path d="M277.5 301.5s-5-39-37.28-27.69c-7.72 4.69-13.72 11.69-11.72 28.69z" stroke-miterlimit="10" stroke="#000" fill="none"></path><path d="M261.5 304.5s4-7 3-15-8.36-16.57-8.36-16.57a25.86 25.86 0 0 1 18.77 16.29 27.17 27.17 0 0 1 2.58 15.29z" fill-opacity=".2"></path><path d="M103.5 303.5s2-30 41-29 41 29 41 29h-11.25c-.75-2-12.12-18.58-30.75-18-15.88-.37-26.93 4.64-30.5 18z" stroke-miterlimit="10" fill="#fff" fill-opacity=".2" stroke="#000"></path><path d="M113.5 301.5s3-16 28-16 32 17 32 17z" stroke-miterlimit="10" fill-opacity=".2" stroke="#000"></path><path d="M118.5 300.5s9-12 24-11 24 12 24 12z" fill="#f9ec31" stroke-miterlimit="10" stroke="#000"></path><circle cx="125.5" cy="283.5" r="1"></circle><circle cx="113" cy="291" r="1"></circle><circle cx="148" cy="280" r="1"></circle><circle cx="170" cy="289" r="1"></circle><path d="M147 200s0 44 1 45a14.41 14.41 0 0 0 14 4c8-2 7-7 7-7a144.32 144.32 0 0 1-2.5-24.5v-19s-18 0-19.5 1.5z" fill="#6d6e70" stroke-miterlimit="10" stroke="#000"></path><path d="M159.5 202.5s1 17 2 23 2 22.83-2 23.91c0 0 9.62-.9 9.31-8.41s-2.43-19.17-2.37-30.34.06-12.17.06-12.17l-7 .11z" fill-opacity=".2"></path><path d="M147 233.5s1.08 3 5.4 3 12.83-1.33 15-4.66M147.5 219.32s1 2.68 5 2.68 11.89-1.18 13.94-4.16M147.5 208.07s1 1.93 5 1.93 11.89-.85 13.94-3" stroke-miterlimit="10" stroke="#000" fill="none"></path></g><g id="face"><path d="M71.5 130.5a51.83 51.83 0 0 0 6 29c8 15 39 71 66 70s76-50 76-93-38-54-77-53-69 19-71 47z" fill="currentColor"></path><path d="M116.5 88s-24.18 5.5-35.59 20.5-9.79 26-9.1 34.48 8.2 22.55 14.44 33 18.64 28.81 22.95 32.65 11.3 11.84 11.3 11.84.3-6.17-5.85-18.58S83.5 164 81.5 143.74s6-42.25 35-55.74z" fill-opacity=".4" fill="#fff"></path><path d="M71.5 130.5a51.83 51.83 0 0 0 6 29c8 15 39 71 66 70s76-50 76-93-38-54-77-53-69 19-71 47z" stroke-width="2" fill="none" stroke="#000" stroke-miterlimit="10"></path><path d="M75.44 115.88s33.06-15.38 65.06-14.38 65 7 67 30-3 34-9 50a89.16 89.16 0 0 1-16.32 27" fill="none" stroke="#000" stroke-miterlimit="10"></path><path d="M80 118.5s-1.5 0-1.5 2 1.5 2 1.5 2 1.5 0 1.5-2-1.5-2-1.5-2zM73 133.5s-1.5 0-1.5 2 1.5 2 1.5 2 1.5 0 1.5-2-1.5-2-1.5-2zM98 112.5s-1.5 0-1.5 2 1.5 2 1.5 2 1.5 0 1.5-2-1.5-2-1.5-2zM118 109.5s-1.5 0-1.5 2 1.5 2 1.5 2 1.5 0 1.5-2-1.5-2-1.5-2zM143 107.5s-1.5 0-1.5 2 1.5 2 1.5 2 1.5 0 1.5-2-1.5-2-1.5-2zM164 107.5s-1.5 0-1.5 2 1.5 2 1.5 2 1.5 0 1.5-2-1.5-2-1.5-2zM184 112.5s-1.5 0-1.5 2 1.5 2 1.5 2 1.5 0 1.5-2-1.5-2-1.5-2zM201 125.5s-1.5 0-1.5 2 1.5 2 1.5 2 1.5 0 1.5-2-1.5-2-1.5-2zM202 149.5s-1.5 0-1.5 2 1.5 2 1.5 2 1.5 0 1.5-2-1.5-2-1.5-2zM195 173.5s-1.5 0-1.5 2 1.5 2 1.5 2 1.5 0 1.5-2-1.5-2-1.5-2zM185 195.5s-1.5 0-1.5 2 1.5 2 1.5 2 1.5 0 1.5-2-1.5-2-1.5-2zM169 210.5s-1.5 0-1.5 2 1.5 2 1.5 2 1.5 0 1.5-2-1.5-2-1.5-2zM141 220.5s-1.5 0-1.5 2 1.5 2 1.5 2 1.5 0 1.5-2-1.5-2-1.5-2zM115 209.5s-1.5 0-1.5 2 1.5 2 1.5 2 1.5 0 1.5-2-1.5-2-1.5-2z"></path><path d="M199.5 115.5l-9-5.07s-2.5-.43.5 9.57 6.5 25.5 4.5 40.5-7 27-19 40-17.37 20.78-17.19 23.89 25.19-15.89 29.19-21.89 11.93-23.83 16-39 7-39-5-48z" fill-opacity=".2"></path><path d="M201 100l-10 10s-23.39-8.18-41.7-8.09-33.49-1.25-53.4 6.42L76 116s-.08-2.83 6.71-9.66 18-18.34 48.89-22.09 49.94 2.2 58.92 6.73 12 7.09 12 7.09z" fill-opacity=".2" fill="#fff"></path></g><g id="eyes"><path d="M99.5 142.5s0-10 12-14 26-4 26-4 20-1 25 2 5 9 5 11-2 11-19 13-33 3-33 3-16 0-16-11z" fill="currentColor"></path><path d="M99.5 142.5s0-10 12-14 26-4 26-4 20-1 25 2 5 9 5 11-2 11-19 13-33 3-33 3-16 0-16-11z" stroke-linecap="round" stroke-linejoin="round" stroke="#000" fill-opacity=".6"></path><path d="M107.16 130.47S105 133 105 138s2 9 8 10 20.5-1.5 20.5-1.5 11-2 18-2 15.74-2.78 15.87-5.89-.17-7.11-2.52-10.11-7.12-3.56-10.24-3.78-12.52-.54-14.82-.38-10.17.47-12.23.81-7.31 1.1-7.31 1.1l-7.61 1.87s-4.81 1.32-5.48 2.35z" stroke-width=".5" fill="#461917" stroke-linecap="round" stroke-linejoin="round" stroke="#000"></path><path d="M109 135s-1 11 10 10 10-10 10-10 0-6-3-8-2.85-1.25-2.85-1.25-11.28 2.64-12.21 2.94S109 133 109 135z" fill="#f9ec31" stroke-width=".5" stroke-linecap="round" stroke-linejoin="round" stroke="#000"></path><path d="M142 125s-3 2-3 7 3.5 10.5 9.5 10.5 12-4 12-10-3.66-7.5-3.66-7.5l-4.78-.47-4.22-.16h-3.44l-1.91.13z" stroke-miterlimit="10" fill="#f9ec31" stroke-width=".5" stroke="#000"></path><path d="M119.42 133s-1.17 0-1.17 2.5 1.17 2.5 1.17 2.5a2.51 2.51 0 0 0 0-5zM150.08 130a1.8 1.8 0 0 0-1.82 1.94c-.07 2 .78 3 1.65 3.06s1.78-.94 1.85-2.94a1.8 1.8 0 0 0-1.68-2.06"></path><path d="M99.5 142.5s0-10 12-14 26-4 26-4 20-1 25 2 5 9 5 11-2 11-19 13-33 3-33 3-16 0-16-11z" fill="none" stroke-linecap="round" stroke-linejoin="round" stroke="#000"></path></g><g id="mouth"><g fill="currentColor"><path d="M122 180s1 10 2 14 1.5 6.5 1.5 6.5 3 0 4-1-2-17-2-18v-2s-1.49 0-3 .11a12 12 0 0 0-2.5.39z"></path><path d="M131 179s1 10 2 14 1.5 6.5 1.5 6.5 3 0 4-1-2-17-2-18v-2s-1.49 0-3 .11a12 12 0 0 0-2.5.39zM141 179s1 10 2 14 1.5 6.5 1.5 6.5 3 0 4-1-2-17-2-18v-2s-1.49 0-3 .11a12 12 0 0 0-2.5.39zM149 178s1 10 2 14 1.5 6.5 1.5 6.5 3 0 4-1-2-17-2-18v-2s-1.49 0-3 .11a12 12 0 0 0-2.5.39z"></path></g><path d="M122 180s1 10 2 14 1.5 6.5 1.5 6.5 3 0 4-1-2-17-2-18v-2s-1.49 0-3 .11a12 12 0 0 0-2.5.39z" fill-opacity=".4"></path><path d="M122 180s1 10 2 14 1.5 6.5 1.5 6.5 3 0 4-1-2-17-2-18v-2s-1.49 0-3 .11a12 12 0 0 0-2.5.39z" stroke="#000" stroke-linecap="round" stroke-linejoin="round" fill="none"></path><path d="M124.5 180.5s1 11 2 14a15.77 15.77 0 0 1 1 4s2.34-.11 2.17.44a31 31 0 0 0-.82-8.63 59 59 0 0 1-1.35-10.07v-.75h-3zM125.85 200.49l1.65-1.99" fill="#461917" stroke-width=".5" stroke="#000" stroke-linecap="round" stroke-linejoin="round"></path><path d="M131 179s1 10 2 14 1.5 6.5 1.5 6.5 3 0 4-1-2-17-2-18v-2s-1.49 0-3 .11a12 12 0 0 0-2.5.39z" fill-opacity=".4"></path><path d="M131 179s1 10 2 14 1.5 6.5 1.5 6.5 3 0 4-1-2-17-2-18v-2s-1.49 0-3 .11a12 12 0 0 0-2.5.39z" stroke="#000" stroke-linecap="round" stroke-linejoin="round" fill="none"></path><path d="M133.5 179.5s1 11 2 14a15.77 15.77 0 0 1 1 4s2.34-.11 2.17.44a31 31 0 0 0-.82-8.63 59 59 0 0 1-1.35-10.07v-.75h-3zM134.85 199.49l1.65-1.99" fill="#461917" stroke-width=".5" stroke="#000" stroke-linecap="round" stroke-linejoin="round"></path><path d="M141 179s1 10 2 14 1.5 6.5 1.5 6.5 3 0 4-1-2-17-2-18v-2s-1.49 0-3 .11a12 12 0 0 0-2.5.39z" fill-opacity=".4"></path><path d="M141 179s1 10 2 14 1.5 6.5 1.5 6.5 3 0 4-1-2-17-2-18v-2s-1.49 0-3 .11a12 12 0 0 0-2.5.39z" stroke="#000" stroke-linecap="round" stroke-linejoin="round" fill="none"></path><path d="M143.5 179.5s1 11 2 14a15.77 15.77 0 0 1 1 4s2.34-.11 2.17.44a31 31 0 0 0-.82-8.63 59 59 0 0 1-1.35-10.07v-.75h-3zM144.85 199.49l1.65-1.99" fill="#461917" stroke-width=".5" stroke="#000" stroke-linecap="round" stroke-linejoin="round"></path><path d="M149 178s1 10 2 14 1.5 6.5 1.5 6.5 3 0 4-1-2-17-2-18v-2s-1.49 0-3 .11a12 12 0 0 0-2.5.39z" fill-opacity=".4"></path><path d="M149 178s1 10 2 14 1.5 6.5 1.5 6.5 3 0 4-1-2-17-2-18v-2s-1.49 0-3 .11a12 12 0 0 0-2.5.39z" stroke="#000" stroke-linecap="round" stroke-linejoin="round" fill="none"></path><path d="M151.5 178.5s1 11 2 14a15.77 15.77 0 0 1 1 4s2.34-.11 2.17.44a31 31 0 0 0-.82-8.63 59 59 0 0 1-1.35-10.07v-.75h-3zM152.85 198.49l1.65-1.99" fill="#461917" stroke-width=".5" stroke="#000" stroke-linecap="round" stroke-linejoin="round"></path></g><g id="accessory"><path d="M131 59s-13 1-14 6a2.62 2.62 0 0 0 .5 2.5c1 1 3 5 4 8s2 5 0 5-8 2-10 4-1 5-1 5l1 9a33.15 33.15 0 0 0 18 5c16.5.5 34-9 35-10s-1-11-1-11c.16-.17-2.84-5.17-4-5-1 .14-12 0-12 0s0-15-1-16-5-3-15.5-2.5z" fill="currentColor"></path><path d="M151.5 88.5s1.14 9.54.57 10.77c0 0 12.43-4.77 12.43-5.77s0-9-1-11a27.36 27.36 0 0 0-4-5s1.59 1.44-.21 3.72-5.36 6.31-8.08 6.3z" fill-opacity=".2"></path><path d="M131 59s-13 1-14 6a2.62 2.62 0 0 0 .5 2.5c1 1 3 5 4 8s2 5 0 5-8 2-10 4-1 5-1 5l1 9s6 5 18 5c18 0 34-9 35-10s-1-11-1-11-3-4.79-4-5-12-.18-12 0c0 0 0-15-1-16s-5-3-15.5-2.5z" stroke-miterlimit="10" stroke="#000" fill="none"></path><path d="M121.5 80.5s-7.3 1.22-8.65 3.11.21 5.68 3.93 6.29 12.31 2.13 27-.63l7.42-1.75-10.71-4a38.39 38.39 0 0 0-18.99-3.02z" fill="#fff" fill-opacity=".2"></path><path d="M132.5 67.5s15-1 14-5-14-3.56-14-3.56S118 60 117.26 64.25s15.24 3.25 15.24 3.25z" stroke-miterlimit="10" stroke="#000" fill="none"></path><path d="M121.5 75.5s0 2 6 3 13-2 16-4 3.33-3.41 3.33-3.41l.67 6.41a10.67 10.67 0 0 1-8 6c-13 3-16.91-3.58-16.91-3.58z" fill="#ec1c24" stroke-width=".75" stroke-miterlimit="10" stroke="#000"></path><path d="M137 67l3.87 16.18S147 80 147 77V63.27S145.09 67 137 67z" fill-opacity=".2"></path><path d="M136.18 59l.82 8s-18 2-20-2 13.36-7 19.18-6z" fill="#fff" fill-opacity=".2"></path><path d="M113.16 83.3s-6.66 9.2 23.18 7c25.17-1.75 23.8-12.39 23.8-12.39l3.36 4.64s2 10 1 11-18 10-33.68 10a45.47 45.47 0 0 1-16.46-3.35 7.75 7.75 0 0 1-2.86-1.61l-1.2-10a5.34 5.34 0 0 1 2.86-5.29z" stroke-linecap="round" stroke-linejoin="round" stroke="#000" fill="none"></path></g></g></svg>