<svg viewBox="0 0 300 300" width="140" height="140" xmlns="http://www.w3.org/2000/svg"><g style="color: rgb(246, 146, 30);"><g id="body"><g fill="currentColor"><path d="M137.41 252.15s-.91-4.65-11.91-3.65-13 12-13 18 4 13 12 14c0 0 3 0 3-1 0 0-3.17-6.44.41-16.72 0 0 5.42-7.98 9.5-10.63zM194.5 244.5s-19 1-19 17 11 21 17 21 20-2 19-20-17-18-17-18z"></path><path d="M181.5 247.5a39.32 39.32 0 0 0-24-4c-14 2-28 14-30 19s-3 9 0 17 3 20 1 22h68s.68-18.41-.66-19.2c0 0-21.34 1.2-20.34-19.8a13.88 13.88 0 0 1 6.67-13.88z"></path></g><path d="M194.5 244.5s-19 1-19 17 11 21 17 21 20-2 19-20-17-18-17-18z" stroke="#000" stroke-miterlimit="10" fill="none"></path><path d="M195.5 245.5s8 5 6 18-9.78 17.77-14.39 17.89c0 0 21.41 6.8 24.4-15.54 0-.01.99-20.35-16.01-20.35z" fill-opacity=".2"></path><path d="M181.5 247.5a39.32 39.32 0 0 0-24-4c-14 2-28 14-30 19s-3 9 0 17 3 20 1 22h68s.68-18.41-.66-19.2c0 0-21.34 1.2-20.34-19.8a13.88 13.88 0 0 1 6.67-13.88z" stroke="#000" stroke-miterlimit="10" fill="none"></path><path d="M195.5 282.5s7 11 6 19h12s2.5-15-7.25-23.5c0 0-2.75 4.5-10.75 4.5z" fill="#6d6e70" stroke="#000" stroke-miterlimit="10"></path><path d="M211.55 285.39s.73 7.21-11.66 6.16" stroke="#000" stroke-miterlimit="10" fill="none"></path><path d="M136.5 260.5a3.1 3.1 0 0 0-2 1c-1 1-3 5 0 5s4-1 4-3-1-3-2-3zM133.5 270.5a4.33 4.33 0 0 0-2 4c0 3 1 6 2 12s.67 14-1.67 15 6.67 0 6.67 0 4-16 0-25c0 0-2-7-5-6z" fill-opacity=".4" fill="#fff"></path><path d="M161.5 253.5s9 2 11 10 2 28 2 28v12l22 1v-19a4.38 4.38 0 0 0-1-3s-22-1-20-21c0 0 0-9 7-13a35 35 0 0 0-14.06-5.07l.06 5.07a10.39 10.39 0 0 1-7 5z" fill-opacity=".2"></path><path d="M141.34 249.41s3.16 11.09 16.16 11.09 19.07-10 19-15M144.5 301.5s2-12 1-18l23-1s1 17 0 19M137.41 252.15s-.91-4.65-11.91-3.65-13 12-13 18 4 13 12 14c0 0 3 0 3-1-4.21-6.17-3-19 9.91-27.35z" stroke="#000" stroke-miterlimit="10" fill="none"></path><path d="M118.5 252.5s5-3 3 1-5 5-6 11 4 11 4 11 2 2-1 2-7.7-8-5.35-17a16.51 16.51 0 0 1 5.35-8z" fill="#fff" fill-opacity=".2"></path><path d="M119.36 278.79s-3.86 5.71-4.86 10.71 1 12 1 12h10s-1-7 1-12 2.48-4.68 2.48-4.68l-1.48-5.32s-1.27 1.4-4.63.7-3.87-1.4-3.87-1.4" fill="#6d6e70" stroke="#000" stroke-miterlimit="10"></path><path d="M114.92 286.75s3.58 4.75 11.58 2.75" stroke="#000" stroke-miterlimit="10" fill="none"></path><circle cx="158.5" cy="257.5" r="1"></circle><circle cx="150" cy="255" r="1"></circle><circle cx="146" cy="251" r="1"></circle><circle cx="168" cy="254" r="1"></circle><circle cx="172" cy="247" r="1"></circle><path d="M125 280.39s-4.48 3.61-3.22 21.11H125s-1-11.5 4-16.5l-1.58-5.08zM202 281.28s7 11.72 7 20.72 4.79-1.37 4.79-1.37S215 286 206 278a6.19 6.19 0 0 1-4 3.28z" fill-opacity=".2"></path><path d="M147 200s-1 42 2 50c0 0 12 9 20-2 0 0-3.5-26.5-3.5-48.5a77.11 77.11 0 0 0-18.5.5z" fill="#6d6e70" stroke="#000" stroke-miterlimit="10"></path><path d="M166 211.5s-1.08 3-8.68 3-10.48-1.37-10.48-1.37M166 223.5s-1.08 3-8.68 3-10.48-1.37-10.48-1.37M147.5 238.5a15.39 15.39 0 0 0 8 2c5 0 11.32-1.58 12.16-4.29" stroke="#000" stroke-miterlimit="10" fill="none"></path><path d="M158.67 199.17s.83 11.33 1.83 18.33 2 15 2 20 .33 13.93-1.33 16c0 0 4.33 0 7.33-6 0 0-3-26-3-33v-15z" fill-opacity=".2"></path><circle cx="148" cy="286" r=".5"></circle><circle cx="165.5" cy="285.5" r=".5"></circle></g><g id="face"><path d="M91.5 107.5s4 64 4 77 1 38 1 38 4 11 22 10c36.5.5 60-11 66-16 0 0-3-106-3-116s4-20-36-22c0 0-35.59 1.45-44.8 8.73 0 0-10.2 2.27-9.2 7.27s0 13 0 13z" fill="currentColor"></path><path d="M95.8 102s2.7 53.53 3.7 68.53 5 42 5 45v14.71s-7-3.71-8-7.71-3.65-88.21-3.83-95.61-1.17-19.42-1.17-19.42v-13s-.4 5.93 4.3 7.5z" fill-opacity=".4" fill="#fff"></path><path d="M145.5 78.5s-53 5-54 16 23 14 37 13 52-7 53-16-25-14-36-13z" stroke="#000" stroke-miterlimit="10" fill-opacity=".2" fill="#fff"></path><path d="M91.5 107.5s4 64 4 77 1 38 1 38 3 9 22 10c32 2 60-11 66-16 0 0-3-106-3-116s4-20-36-22c-16 .67-31.14 3.13-44.8 8.73-4.7 1.42-7.78 3.83-9.2 7.27z" fill="none" stroke="#000" stroke-miterlimit="10"></path><path d="M168.5 103.5s1 49 1 57 1 35 1 41-1 22.92-1 22.92l15-7.92s-2.94-96.67-3-100.83 0-25.17 0-25.17c.34 3.51-3.36 6.57-11 9.17l-2 .72z" fill-opacity=".2"></path><circle cx="148" cy="114" r="1.5"></circle><circle cx="130.5" cy="116.5" r="1.5"></circle><circle cx="114.5" cy="117.5" r="1.5"></circle><circle cx="116.5" cy="225.5" r="1.5"></circle><circle cx="101.5" cy="220.5" r="1.5"></circle><circle cx="132.5" cy="225.5" r="1.5"></circle><circle cx="150.5" cy="221.5" r="1.5"></circle><circle cx="166.5" cy="217.5" r="1.5"></circle><circle cx="179.5" cy="212.5" r="1.5"></circle><circle cx="99.5" cy="112.5" r="1.5"></circle><circle cx="164.5" cy="109.5" r="1.5"></circle><circle cx="177.5" cy="104.5" r="1.5"></circle></g><g id="eyes"><path d="M131.5 119.5c-5 0-19 2-19 16 0 15 10 18 18 18s17-7 16-19-10-15-15-15z" fill="currentColor"></path><path d="M131.5 119.5c-5 0-19 2-19 16 0 15 10 18 18 18s17-7 16-19-10-15-15-15z" stroke-width=".75" stroke="#000" fill-opacity=".4" stroke-miterlimit="10"></path><path d="M132 124h-.5c-2.51 0-13.61.38-14.5 11-1 12 8.5 13.5 12.5 13.5s13-3 13-13c0-11-10.5-11.5-10.5-11.5z" stroke-width=".75" stroke="#000" fill-opacity=".4" stroke-miterlimit="10"></path><path d="M130.5 124.5s-10 1-10 10 5 11 11 11a11.1 11.1 0 0 0 11-11c0-6-6-10-12-10z" stroke-width=".5" fill="#461917" stroke-linecap="round" stroke-linejoin="round" stroke="#000"></path><ellipse cx="131.5" cy="134.5" rx="2" ry="3" fill="#ec1c24"></ellipse><path d="M147.5 133.5h6s1 0 0 1a7.69 7.69 0 0 1-3 2h-4v-2zM112.49 135.15a29.28 29.28 0 0 1-3.29.35c-1.1 0-1.7 1-2.2 2a.79.79 0 0 0 .2.57 1.56 1.56 0 0 0 .94.36 18.66 18.66 0 0 0 2.15.07c2.2 0 2.32-.35 2.32-.35z" fill="#461917" stroke-linecap="round" stroke-linejoin="round" stroke-width=".75" stroke="#000"></path></g><g id="mouth"><path d="M130.5 175.5v15a73.09 73.09 0 0 0 1 13s6 1 6 0-1-28-1-28c-2.32-.12-5.22-.44-6 0z" fill="currentColor"></path><path d="M130.5 175.5v15a73.09 73.09 0 0 0 1 13s6 1 6 0-1-28-1-28c-2.32-.12-5.22-.44-6 0z" stroke="#000" stroke-linecap="round" stroke-linejoin="round" fill="none"></path><path d="M131.65 203a75.68 75.68 0 0 1-1.4-15.06 102.33 102.33 0 0 1 .48-12.27 3 3 0 0 1 1.25-.25 5.33 5.33 0 0 1 1 .1l.43.2s0 .16-.13.72a138.49 138.49 0 0 0-1 14.06 64.14 64.14 0 0 0 1 10.92z" opacity=".4"></path><path d="M132 175.67a5 5 0 0 1 .87.08l.25.11a3.34 3.34 0 0 1-.09.52v.05a139.54 139.54 0 0 0-1 14.06 64.67 64.67 0 0 0 1 10.83l-1.16 1.16a77 77 0 0 1-1.3-14.56 107.4 107.4 0 0 1 .46-12.1 2.85 2.85 0 0 1 1-.17m0-.5a3.13 3.13 0 0 0-1.48.33s-.5 3-.5 12.44a72 72 0 0 0 1.5 15.56l2-2a62.68 62.68 0 0 1-1-11 138 138 0 0 1 1-14c.13-.56.15-.92 0-1l-.5-.23a5.57 5.57 0 0 0-1-.1z"></path><path d="M137.19 201.56a5.59 5.59 0 0 0-2.48-.65 3.64 3.64 0 0 0-1.34.25 39.16 39.16 0 0 1-1.12-9c0-4.56 1.26-14.93 1.47-16.62l2.54.17.56 15.47z" fill="#461917"></path><path d="M133.94 175.83l2.06.17.56 15.25.35 9.94a5.61 5.61 0 0 0-2.21-.5 4 4 0 0 0-1.17.17 39 39 0 0 1-1-8.64c0-4.37 1.16-14.11 1.44-16.36m-.44-.53s-1.5 11.86-1.5 16.89a38.68 38.68 0 0 0 1.2 9.31 3.33 3.33 0 0 1 1.51-.35 5.56 5.56 0 0 1 2.74.85l-.38-10.8-.57-15.7-3-.2z"></path><path d="M137.5 201.5v2h-5.7l1.7-2s1-2 4 0z" fill-opacity=".4" stroke-width=".75" stroke="#000" stroke-linecap="round" stroke-linejoin="round"></path></g><g id="accessory"><path d="M139.5 51.5s-24-2-32 33c0 0-6 25 20 25s32-17 34-32-12-26-22-26z" fill="currentColor"></path><path d="M139.5 51.5c-15.88.08-26.77 10.62-32 33 0 0-5 26 20 25s34-18 34-32c0-17-12-26-22-26z" stroke="#000" fill="none" stroke-linecap="round" stroke-linejoin="round"></path><path d="M143.5 53.5s14 7 10 29-26 25-33 24-18-7-10.34-30.84C114.5 59.5 130.5 47.5 143.5 53.5z" stroke-width=".75" stroke="#000" fill="none" stroke-linecap="round" stroke-linejoin="round"></path><path d="M121.5 63.5c-3 1.87-8 6-9 11s-1 14 0 16 4 1 4-2 0-17 5-21 1.9-5.18 0-4zM128.5 57.5s-6 4-3 5 6-3 6-3 2-3-3-2z" fill-opacity=".4" fill="#fff"></path><path d="M125.5 71.5s-7-2-10 1c-1.88 2.07 0 8 5 10s8-1 9-4-2-7-4-7z" fill="#ec1c24" stroke-miterlimit="10" stroke-width=".75" stroke="#000"></path><path fill-opacity=".2" fill="#fff" d="M131 79l4 2-.38-2.33-4.24-2.04-.32 1.97.94.4z"></path><path d="M130.09 76.5l4.46 2s.89 2 0 3a4.07 4.07 0 0 1-2.67 1L129 80.79a5.22 5.22 0 0 0 1.09-4.29z" stroke-width=".75" stroke="#000" fill="none" stroke-linecap="round" stroke-linejoin="round"></path><ellipse cx="120" cy="75.5" rx="2.5" ry="2" fill-opacity=".4" fill="#fff"></ellipse><path d="M123.5 71.5s5 2 4 6-6.49 4.82-8.25 4.41 7.54 3.33 9.89-2.54S127 72 123.5 71.5z" fill-opacity=".2"></path></g></g></svg>