<svg viewBox="0 0 300 300" width="140" height="140" xmlns="http://www.w3.org/2000/svg"><g style="color: rgb(254, 69, 158);"><g id="body"><path d="M145.5 301.5s-1-18-1-23c0 0 .37-3.41 15.68-2.2s10.15-.26 10.15-.26 5.17-.54 5.17 2.46 0 19 3 23z" fill="currentColor"></path><path d="M159.5 286.5s16-1 16-8c0 0 4-3-14-2h-12s-5 0-5 2-1 7 15 8z" stroke="#000" stroke-miterlimit="10" fill-opacity=".2" fill="#fff"></path><path d="M145.5 301.5s-1-18-1-23c0 0 .37-3.41 15.68-2.2s10.15-.26 10.15-.26 5.17-.54 5.17 2.46 0 19 3 23z" fill="none" stroke="#000" stroke-miterlimit="10"></path><path d="M167.5 282.5l4.79.67.55 18.33h5.66s-2.64-3-2.82-15l-.18-8s-1-3-4-2.5v3.5a6.93 6.93 0 0 1-4 3z" fill-opacity=".2"></path><circle cx="164" cy="291" r="1.5"></circle><circle cx="155.5" cy="291.5" r="1.5"></circle><circle cx="148.5" cy="288.5" r="1.5"></circle><circle cx="171.5" cy="288.5" r="1.5"></circle><path d="M146 200s3 68 2 79c0 0 2 6 12 5s11.5-4.5 11.5-4.5-3-75-2-80c0 0-18 0-23.5.5z" fill="#6d6e70" stroke="#000" stroke-miterlimit="10"></path><path d="M161.5 200.5s0 20 1 27 3 24 4 35a166.5 166.5 0 0 1 .61 20s4.39-2 4.39-3-1.38-41.67-1.69-48.33-.31-31.67-.31-31.67h-8z" fill-opacity=".2"></path><path d="M146.43 210.28a31.28 31.28 0 0 0 13.07 3.22c7 0 9.83-3.22 9.83-3.22M147.43 222.28a31.28 31.28 0 0 0 13.07 3.22c7 0 9.83-3.22 9.83-3.22M147.43 234.28a31.28 31.28 0 0 0 13.07 3.22c7 0 9.83-3.22 9.83-3.22M147.43 246.28a31.28 31.28 0 0 0 13.07 3.22c7 0 9.83-3.22 9.83-3.22M148.43 259.28a31.28 31.28 0 0 0 13.07 3.22c7 0 9.83-3.22 9.83-3.22M148.43 271.28a31.28 31.28 0 0 0 13.07 3.22c7 0 9.83-3.22 9.83-3.22" fill="none" stroke="#000" stroke-miterlimit="10"></path><path d="M144.5 281.5l2 21 33-1s-4-6-4-23c0 0-1 8-15 8s-15-4-16-5z" fill-opacity=".2"></path></g><g id="face"><path d="M156 83s-55 5-66 53 9.5 66.5 9.5 66.5 9 8 12 8 2-2 1-4a7.47 7.47 0 0 0-3-3s4 1 5 10 1 32 1 38v12s2 8 17 8 30-7 30-7-4-34-2-41 9-20 15-26 3-1 0 2a50.18 50.18 0 0 0-6 8s17-7 23-14 15-10 16-33 6-79-52.5-77.5z" fill="currentColor"></path><path d="M156 83s-55 5-66 53 9.5 66.5 9.5 66.5 9 8 12 8 2-2 1-4a7.47 7.47 0 0 0-3-3s4 1 5 10 1 32 1 38v12s2 8 17 8 30-7 30-7-4-34-2-41 9-20 15-26 3-1 0 2a50.18 50.18 0 0 0-6 8s17-7 23-14 15-10 16-33 6-79-52.5-77.5z" fill="none" stroke="#000" stroke-linecap="round" stroke-linejoin="round"></path><path d="M156 82s-55 5-66 53 9.5 66.5 9.5 66.5 9 8 12 8 2-2 1-4a7.47 7.47 0 0 0-3-3s4 1 5 10 1 32 1 38v12s2 8 17 8 30-7 30-7-4-34-2-41 9-20 15-26 3-1 0 2a50.18 50.18 0 0 0-6 8s17-7 23-14 15-10 16-33 6-79-52.5-77.5z" fill="none" stroke="#000" stroke-linecap="round" stroke-linejoin="round"></path><path d="M181.5 93.5s18 16 16 44-6 41-28 54c0 0-16 3-19 28s0 49.27 0 49.27l12-4.27s-6.87-36.09.07-46.54 7.21-11.15 17.07-15.3 30.94-21.59 29.4-50.87-.09-56-35.32-67.16l-3.94-.77s-1.28.64 11.72 9.64z" fill-opacity=".2"></path><path d="M110.5 117.5s-7 1-10 11-11 25-8 35 7 10 9 5 1-17 5-28 10-21 4-23zM122.5 99.5s-9 6-9 9 0 4 5 4 13-4 13-9-3-7-9-4z" fill="#fff" fill-opacity=".4"></path></g><g id="eyes"><g fill="currentColor"><path d="M112.71 130h-.49c-2.46 0-13.35.38-14.22 11-1 12 8.33 13.5 12.26 13.5s12.75-3 12.75-13c-.01-11-10.3-11.5-10.3-11.5zM156.71 130h-.49c-2.46 0-13.35.38-14.22 11-1 12 8.33 13.5 12.26 13.5s12.75-3 12.75-13c-.01-11-10.3-11.5-10.3-11.5z"></path></g><path d="M112.71 130h-.49c-2.46 0-13.35.38-14.22 11-1 12 8.33 13.5 12.26 13.5s12.75-3 12.75-13c-.01-11-10.3-11.5-10.3-11.5z" stroke="#000" fill-opacity=".55" stroke-miterlimit="10" stroke-width=".75"></path><path d="M111.23 130.5s-9.8 1-9.8 10 4.9 11 10.78 11a11 11 0 0 0 10.78-11c.01-6-5.87-10-11.76-10z" fill="#461917" stroke-linecap="round" stroke-linejoin="round" stroke-width=".5" stroke="#000"></path><ellipse cx="112.22" cy="140.5" rx="1.96" ry="3" fill="#ec1c24"></ellipse><path d="M156.71 130h-.49c-2.46 0-13.35.38-14.22 11-1 12 8.33 13.5 12.26 13.5s12.75-3 12.75-13c-.01-11-10.3-11.5-10.3-11.5z" stroke="#000" fill-opacity=".55" stroke-miterlimit="10" stroke-width=".75"></path><path d="M155.23 130.5s-9.8 1-9.8 10 4.9 11 10.78 11a11 11 0 0 0 10.78-11c.01-6-5.87-10-11.76-10z" fill="#461917" stroke-linecap="round" stroke-linejoin="round" stroke-width=".5" stroke="#000"></path><ellipse cx="156.22" cy="140.5" rx="1.96" ry="3" fill="#ec1c24"></ellipse></g><g id="mouth"><path d="M149 179s-12 2-15 2-13.5 1.5-15.5 5.5-1 11.5 8 10.5 12-1.5 20-2.5 13-4 14-6 0-5-2-7-4-3-9.5-2.5z" fill="currentColor"></path><path d="M149 179s-12 2-15 2-11.5.5-14.5 4.5c-4 4-2 11.5 7 11.5 8 0 12-1.5 20-2.5s13-4 14-6 0-5-2-7-4-3-9.5-2.5z" stroke="#000" fill-opacity=".4" stroke-miterlimit="10"></path><path d="M121.5 184.5s-3 4-1 6 4 3 12 2 13-3 18-3 10.83-2.26 9.42-6.13-5.75-5.12-8.58-4.5-12.7 1.53-16.26 2.08-6.7-.1-10.63 1.73-2.95 1.82-2.95 1.82z" fill="#461917" stroke-linecap="round" stroke-linejoin="round" stroke-width=".5" stroke="#000"></path></g><g id="accessory"><path d="M125.5 157.5s8-4 15-3 20 8 26 5l8-4s-3 13-14 14-29-3-35-2-25 7-30 6-10-1-12-11c0 0-1-3 3 0s11 4 18-1 15-8 21-4z" fill="currentColor"></path><path d="M125.5 157.5s8-4 15-3 20 8 26 5l8-4s-3 13-14 14-29-3-35-2-25 7-30 6-10-1-12-11c0 0-1-3 3 0s11 4 18-1 15-8 21-4z" stroke="#000" stroke-linecap="round" stroke-linejoin="round" fill="#fff" fill-opacity=".4"></path><ellipse cx="107.5" cy="165.25" rx="1" ry="1.25"></ellipse><ellipse cx="99.5" cy="168.25" rx="1" ry="1.25"></ellipse><ellipse cx="91.75" cy="168.94" rx=".75" ry=".94"></ellipse><ellipse cx="115.5" cy="163.25" rx="1" ry="1.25"></ellipse><ellipse cx="134.5" cy="162.25" rx="1" ry="1.25"></ellipse><ellipse cx="145.5" cy="163.25" rx="1" ry="1.25"></ellipse><ellipse cx="154.5" cy="164.25" rx="1" ry="1.25"></ellipse><ellipse cx="161.5" cy="163.25" rx="1" ry="1.25"></ellipse><circle cx="125" cy="162" r="2.5" fill="none" stroke-width=".75" stroke="#000" stroke-linecap="round" stroke-linejoin="round"></circle><circle cx="125" cy="162" r=".5"></circle></g></g></svg>