<svg viewBox="0 0 300 300" width="140" height="140" xmlns="http://www.w3.org/2000/svg"><g style="color: rgb(166, 168, 171);"><g id="body"><path d="M148.46 242.82s-35 5.68-33 23.68c0 0-1 7 9 20s13 20 13 20l51-2s1-7 9-18 11-13 11-24-13.09-25.36-60-19.68" fill="currentColor"></path><path d="M148.46 242.82s-35 5.68-33 23.68c0 0-1 7 9 20s13 20 13 20l51-2s1-7 9-18 11-13 11-24-13.09-25.36-60-19.68" stroke="#000" stroke-miterlimit="10" fill="none"></path><path d="M131.83 247.83s-6.33 4.67-7.33 12.67c0 0-3 7 4 14s13 18 14 25-7.56 2.2-7.56 2.2-5.72-8.89-11.08-16-10.81-14.18-7.58-25.17c0-.04 1.89-6.36 15.55-12.7z" fill="#fff" fill-opacity=".4"></path><circle cx="155.5" cy="267.5" r="1"></circle><circle cx="144" cy="268" r="1"></circle><circle cx="132" cy="270" r="1"></circle><circle cx="122" cy="274" r="1"></circle><circle cx="170" cy="267" r="1"></circle><circle cx="183" cy="270" r="1"></circle><circle cx="194" cy="275" r="1"></circle><path d="M193.33 245.17s-1.83 5.33 1.17 8.33 4 4 2 8a21.05 21.05 0 0 0-3.72 4c-1.28 2 .72 4-1.28 9s-15 28-15 28l12.74-.81s-.74-2.19 8.26-15.19 13-17.33 10-29.17c0 0-3.33-7.5-14.17-12.16z" fill-opacity=".2"></path><path d="M116.5 272.83s-2-6.33 6-8.33 19-5 40-5 41 6 40 18a10 10 0 0 1-2.17 5" stroke="#000" stroke-miterlimit="10" fill="none"></path><path d="M166.5 205.5h-14a12.13 12.13 0 0 0-5 1l1 38s0 11 10 11 11-9 11-9-3-17-3-27z" fill="#6d6e70" stroke="#000" stroke-miterlimit="10"></path><path d="M166 212.5s-2.06 3-9.25 3-9.25-1.5-9.25-1.5M166 224.5s-2.06 3-9.25 3-9.25-1.5-9.25-1.5M167 238.5s-2.06 3-9.25 3-9.25-1.5-9.25-1.5" stroke="#000" stroke-miterlimit="10" fill="none"></path><path d="M159.17 205.5s-.67 9 1.33 15 4 15 3 21-1 12.74-3 13.87 8-.87 9-8.87a168.89 168.89 0 0 1-3-28.92V205.5z" fill-opacity=".2"></path><path d="M197.5 286.5s12 3 14 13 16 4 16 4 4-1-2-15a31.19 31.19 0 0 0-18.31-17.5 29.16 29.16 0 0 1-5.19 9.56 32.56 32.56 0 0 0-4.5 5.94z" fill="#6d6e70" stroke="#000" stroke-miterlimit="10"></path><path d="M219.5 279.5s-11.86 4.53-11.93 12.76M228.5 296.5a15.7 15.7 0 0 0-17 4" stroke="#000" stroke-miterlimit="10" fill="none"></path><path d="M224 304.64l4.82-4.14s-2.14-16.5-11-23-10.33-6-10.33-6l-3.27 6s18.25 9.27 19.78 27.14z" fill-opacity=".2"></path><path d="M117.31 275.57s-13.81 6.93-16.81 25.93 17 0 17 0 1.85-8.67 8.92-12.34c0 0-8.29-10.52-9.11-13.59z" fill="#6d6e70" stroke="#000" stroke-miterlimit="10"></path><path d="M109 283s7.48 11.61 11.58 11.55M102 296s6.9 7.76 11.5 6.47" stroke="#000" stroke-miterlimit="10" fill="none"></path><path d="M119.5 283.5s-13 7-12 21 10.64-5.12 10.64-5.12 6.36-8.88 8.36-9.88l-5.5-7z" fill-opacity=".2"></path></g><g id="face"><path d="M148 87s-56.5.5-56.5 63.93 33 84.57 48 84.57 45-8.05 51-41.28c0 0 1-16.11 0-25.17s-1-29.2-1-32.22-3-48.32-41.5-49.83z" fill="currentColor"></path><path d="M151.5 92.5s17 12 22 42 7 44 3 63-9.5 28.5-14.75 31.75 21.67-4.94 26.71-26.84 1.77-35.94 1.77-35.94l-1-32.24s-5-35.64-26.88-43.18c0 0-11.87-4.54-17.37-3s3.52 1.45 6.52 4.45z" fill-opacity=".2"></path><path d="M113.5 110.5s-4 0-4 4 4 7 7 5 5-5 4-7-2-4-7-2zM108.5 123.5s-4-1-7 5-4 15-3 24a33.42 33.42 0 0 0 8 18c2 2 6 3 5-4s-5-14-4-25 7-17 1-18z" fill="#fff" fill-opacity=".4"></path><path d="M148 87s-56.5.5-56.5 63.5 33 84 48 84 45-8 51-41c0 0 1-16 0-25s-1-29-1-32-3-48-41.5-49.5z" fill="none" stroke="#000" stroke-miterlimit="10"></path><path d="M148 86s-56.5.5-56.5 63.5 33 84 48 84 45-8 51-41c0 0 1-16 0-25s-1-29-1-32-3-48-41.5-49.5z" fill="none" stroke="#000" stroke-miterlimit="10"></path></g><g id="eyes"><path d="M127.5 127.5c11.08-.53 43-2 43 11 1 15-16.69 15-23.34 15.52s-37.66 1.48-47.66.48-15-4-15-12 8-11 17-13 19.5-1.69 26-2z" fill="currentColor"></path><path d="M94.39 132.09s2.78-4.25 37.95-4.92 37.17 6.33 38.17 11.33-3 10.76-6 11.88c0 0 5.52-6.38-2.24-11.63s-22.72-6.58-29.74-6.91-24.86-.88-27.94-.61-8.31.44-10.2.86z" fill-opacity=".4" fill="#fff"></path><path d="M127.5 127.5c11.08-.53 43-2 43 11 1 15-16.69 15-23.34 15.52s-37.66 1.48-47.66.48-15-4-15-12 8-11 17-13 19.5-1.69 26-2z" stroke="#000" stroke-miterlimit="10" fill-opacity=".2" fill="#fff"></path><path d="M121.5 131.5c-19 0-36-3-37 11s19 12 40 12 42 0 42-9c0-11-26-14-45-14z" stroke-width=".75" fill="none" stroke="#000" stroke-miterlimit="10"></path><path d="M121.5 140.5s29 0 32 1 2 4-1 4-22-1-31-1-22 1-26 0-1-2 11-3 15-1 15-1z" fill="red" stroke-width=".75" stroke="#000" stroke-miterlimit="10"></path></g><g id="mouth"><path d="M104 173s5.5 23.5 5.5 27.5c0 0 6 5 24 5s41-10 43-14c0 0-4-29-5-30 0 0-25 11-45 12-10.61.62-16.74.27-19.85-.08A20.06 20.06 0 0 1 104 173z" fill="currentColor"></path><path d="M106.65 173.42s3.08 5.1 4.72 14.34 1 10.85 1 10.85S123 203 128 203a73 73 0 0 0 18-1.77 131.07 131.07 0 0 0 22.47-7.33l7.93-3.29-3.18-21.13-1.7-8s-26 11-45 12-20 0-20 0" fill="#f9ec31"></path><path d="M142.5 181.5v8.5l17.5-4 1 6v4.9l15-5.9-3-20.5c.15.38-19.81 8.35-30.5 11zM142.4 190a38.22 38.22 0 0 0 2.1 11.5s-10.5 1.5-17 1S113 199 113 199l-2.5-15.5h11l1.5 7.5a122 122 0 0 0 19.4-1zM118 174l3.5 9c7.62.33 21-1.5 21-1.5s-1.13-7.27-2.5-9.5z" fill="#faaf40"></path><path d="M104 173s5.5 23.5 5.5 27.5c0 0 6 5 24 5s41-10 43-14c0 0-4-29-5-30 0 0-25 11-45 12-10.61.62-16.74.27-19.85-.08A20.06 20.06 0 0 1 104 173z" stroke="#000" stroke-linecap="round" stroke-linejoin="round" fill="none"></path><path d="M112.33 198.61S122 203 130 203s23.5-2.5 32.5-6.5 13.88-5.89 13.88-5.89l.12.89a31.45 31.45 0 0 1-8.77 5.75c-5.23 2.25-19.73 8.25-35.48 8.25s-22.75-5-22.75-5l2.83-1.89" stroke-width=".75" fill-opacity=".4" stroke="#000" stroke-linecap="round" stroke-linejoin="round"></path><path d="M107.5 174.5a93.08 93.08 0 0 1 4 14 67.34 67.34 0 0 1 1 10l-3 2s-2.2-15.2-4.6-23.6l-.9-3.69 2.93.25z" stroke-width=".75" fill-opacity=".4" stroke="#000" stroke-linecap="round" stroke-linejoin="round"></path><path d="M124.61 202.46c.11-5-2.11-16-4.11-22s-3.42-6.66-3.42-6.66M140.25 171.58s2.25 5.92 2.25 9.92v8s.33 10.83 2.67 11.92" stroke-width=".75" stroke="#000" stroke-linecap="round" stroke-linejoin="round" fill="none"></path><path d="M112 191s17 1 30-1 30-7 30-7l3-1" stroke-width=".75" stroke="#000" stroke-linecap="round" stroke-linejoin="round" fill="none"></path><path d="M142.5 181.5v8.42l17.51-3.7 1 8.28v-.5s-1-9-2-14-2.84-12.76-2.84-12.76" stroke-width=".75" stroke="#000" stroke-linecap="round" stroke-linejoin="round" fill="none"></path><path d="M176.5 190.5L173 170c-1.23 1.23-7.76 4-15.16 6.6-4.63 1.64-9.61 3.24-13.84 4.4-11 3-33.55 2.5-33.55 2.5" stroke-width=".75" stroke="#000" stroke-linecap="round" stroke-linejoin="round" fill="none"></path></g><g id="accessory"><path d="M136.5 83.5c-3.39.31-11 2-13 4a4.38 4.38 0 0 0-1 3v5a18.26 18.26 0 0 0 13 3c8-1 16-6 16-6s0-6-1-7-1-2-5-2-6.76-.2-9 0z" fill="currentColor"></path><path d="M125.7 86.16s-2.2 1.34-1.2 3.34 7 3 12 2a53.37 53.37 0 0 0 11-4s3.57-2.09 1.29-3.54-16.9-1.13-23.09 2.2z" stroke-width=".75" stroke="#000" stroke-linecap="round" stroke-linejoin="round" fill-opacity=".2" fill="#fff"></path><path d="M125.7 86.16s-2.2 1.34-1.2 3.34 7 3 12 2a55.23 55.23 0 0 0 8.61-2.5c-1.11-2-8.42-5.89-8.42-5.89s-7.22 1.02-10.99 3.05z" fill-opacity=".2" fill="#fff"></path><path d="M136.5 83.5c-3.39.31-11 2-13 4a4.38 4.38 0 0 0-1 3v5a18.26 18.26 0 0 0 13 3c8-1 16-6 16-6s0-6-1-7-1-2-5-2-6.76-.2-9 0z" fill="none" stroke="#000" stroke-linecap="round" stroke-linejoin="round"></path><path d="M134.5 73.5s-5 1-5 6 1 7 1 7a18.58 18.58 0 0 0 8 0c4-1 5-3 5-3s-1-10-9-10z" fill="#ec1c24" stroke="#000" stroke-linecap="round" stroke-linejoin="round"></path><path d="M139.5 75.5s2 3 1 6-6 5-6 5 8-1 9-3-3-7-4-8z" fill-opacity=".1"></path><path d="M134.5 73.5s-5 1-5 6 1 7 1 7a18.58 18.58 0 0 0 8 0c4-1 5-3 5-3s-1-10-9-10z" fill="none" stroke="#000" stroke-linecap="round" stroke-linejoin="round"></path><path d="M144.5 88.5c1 1 0 7.3 0 7.3l7-3.3s0-6.14-1.5-7.57c-2 3.07-3 3.07-5.5 3.57z" fill-opacity=".2"></path><path d="M133.5 75.5a1 1 0 0 1 1 1c0 1 0 6-2 6s-3 0-2-4 3-3 3-3z" fill-opacity=".4" fill="#fff"></path></g></g></svg>