<svg viewBox="0 0 300 300" width="140" height="140" xmlns="http://www.w3.org/2000/svg"><g style="color: rgb(248, 236, 48);"><g id="body"><g fill="currentColor"><path d="M222.5 301.5s-10-35 11-53 58-15 70 2 2 51 2 51zM83.5 254.5s-6 28 67 26 77-30 76-36-12.3-10.12-26-13c0 5 1 22 1 22s-8 13-46 17c-29 1-45-9-45-9s-1.5-16-2.5-23.13c-11.5 3.38-22.5 9.13-24.5 16.13z"></path><path d="M110.5 261.5s20 11 44 9 36-7 47-17l-1-24a10.53 10.53 0 0 1-.31 4.41c-.69 1.59-4.63 16.78-42.16 19.68s-47-4.1-50-16.1z"></path><path d="M83.5 250H227v58.5H83.5z"></path><path d="M87.5 247.5s-19-10-37-5-29 20-32 37c-1 11 1 16 3 20h64s2-5 0-16-3-23-2-29 4-7 4-7zM108 237s-1 20 45 17 48.5-20.5 47.5-24.5c-.91-3.63-13.68-10.56-39-9.56 0 .56.26 3.3.26 3.3 1.74 9.26.74 15.26-9.26 16.26-3.41.33-10-5-10-5s-1-8-1-13c-21.12 3.09-33.09 8.5-33.5 15.5z"></path></g><path d="M108 237s-1 20 45 17 48.5-20.5 47.5-24.5c-.91-3.63-13.68-10.56-39-9.56 0 .56.26 3.3.26 3.3 1.74 9.26.74 15.26-9.26 16.26-3.41.33-10-5-10-5s-1-8-1-13c-21.12 3.09-33.09 8.5-33.5 15.5z" stroke-miterlimit="10" stroke="#000" fill-opacity=".6"></path><path d="M110.5 261.5s20 11 44 9 36-7 47-17l-1-24a10.53 10.53 0 0 1-.31 4.41c-.69 1.59-4.63 16.78-42.16 19.68s-47-4.1-50-16.1z" stroke-linecap="round" stroke-linejoin="round" fill="none" stroke="#000"></path><path d="M193.37 260.15c-6.66 3.83-18.28 8.29-37.87 10.35-29 1-45-9-45-9s-1.5-16-2.5-23.13c-11.5 3.38-22.5 9.13-24.5 16.13 0 0-6 28 67 26 29.58-.81 47.84-5.89 59-12" fill-opacity=".2" fill="#fff"></path><path d="M83.5 254.5s-6 28 67 26c29.58-.81 47.84-5.89 59-12-5.5-2.5-10.5-5.5-16.13-8.35-6.66 3.83-18.28 8.29-37.87 10.35-29 1-45-9-45-9s-1.5-16-2.5-23.13c-11.5 3.38-22.5 9.13-24.5 16.13z" fill-opacity=".1" fill="#fff"></path><path d="M141.5 190.5v29a142.25 142.25 0 0 0 1 15 9.78 9.78 0 0 0 10 5c7-1 11-4 10-11-.36-2.54-.73-5-1-7.56a138.9 138.9 0 0 1-1-17.44v-14a69.37 69.37 0 0 0-19 1z" fill="#6d6e70" stroke-miterlimit="10" stroke="#000"></path><path d="M152.5 190.5s0 7 2 12a55.9 55.9 0 0 1 3.13 17.34c-.12 3.66.88 15.66-3.12 17.66s-2 2-2 2 7-1.57 8.48-3.79 1.94-3.24 1.23-9.23a177.33 177.33 0 0 1-1.71-24.86V189.5a37.46 37.46 0 0 0-6.17-.25l-1.83.25z" fill="#58595b"></path><path d="M141.5 190.5v29a142.25 142.25 0 0 0 1 15 9.78 9.78 0 0 0 10 5c7-1 11-4 10-11-.36-2.54-.73-5-1-7.56a138.9 138.9 0 0 1-1-17.44v-14a69.37 69.37 0 0 0-19 1z" fill="none" stroke-miterlimit="10" stroke="#000"></path><path d="M161.25 222.25s-2.67 3.25-9.51 3.25-10.13-2-10.13-2M160 208.5s-3 3-9.06 3S142 210 142 210M160 197.5s-2 2-8.06 2a86.48 86.48 0 0 1-9.94-.5" stroke-linecap="round" stroke-linejoin="round" fill="none" stroke="#000"></path><path d="M188 246.51l1.52 15.49s6.63-4 9.06-6l2.42-2s.72.24.36-3.88-.79-17.93-.79-17.93S200 240 188 246.51z" fill-opacity=".4"></path><path d="M84 273.63S97 277 97 285s-1 9 0 14 0 4 0 4H84s3.32-3 2.41-11.26S85 279.5 85 279.5z" fill-opacity=".5" fill="#fff"></path><path d="M87.5 247.5s-19-10-37-5-29 20-32 37c-1 11 1 16 3 20h64s2-5 0-16-3-23-2-29 4-7 4-7z" fill="none" stroke-miterlimit="10" stroke="#000"></path><path d="M87.5 247.5a63.65 63.65 0 0 0-25.06-6.39c7.06 2.39 3.06 8.39-8.94 13.39-11 6-23 10-27.5 32.5-.67 7.37.84 13.18 1.5 14.5l58-2s2-5 0-16-3-23-2-29 4-7 4-7z" fill-opacity=".4"></path><path d="M33.5 299.5s-7-19-3-35a28.63 28.63 0 0 1 17-21.06" stroke-width=".75" fill="none" stroke-miterlimit="10" stroke="#000"></path><path d="M62.44 241.12a3.46 3.46 0 0 1 3.06 3.38c0 3 0 4-10 9s-21.45 10-26.22 21-2.62 25-2.62 25H21.5l-3-20s8.88-37.77 43.94-38.38z" fill-opacity=".2" fill="#fff"></path><path d="M84.26 275.62a31.64 31.64 0 0 1-3.76 14.88 19.71 19.71 0 0 1-11.14 8.83l16.14.17s1.42-2.62.71-10.81a90.57 90.57 0 0 0-1.95-13.07z" fill-opacity=".4"></path><path d="M222.5 301.5s-10-35 11-53 58-15 70 2 2 51 2 51z" fill-opacity=".4" stroke-miterlimit="10" stroke="#000"></path><path d="M292.5 241.5s-12-1-13 15c-1 14 4 41 7 45" stroke-width=".75" stroke-linecap="round" stroke-linejoin="round" fill="none" stroke="#000"></path><path d="M226.5 244.5l.74 11a39.65 39.65 0 0 0-7.12 24.19c.38 14.81 2.38 21.81 2.38 21.81h-12s1-9 .5-14.5-1.49-18.55-1.49-18.55 17.99-8.95 16.99-23.95z" fill-opacity=".4"></path><path d="M209.51 268.45s18-9 17-24l.74 11a39.65 39.65 0 0 0-7.12 24.19c.38 14.81 2.38 21.81 2.38 21.81h-12" fill="none" stroke-miterlimit="10" stroke="#000"></path><path d="M293.9 242.19c-1.9-1.19 6.6 6.31 7.6 15.31s7.11 6.39 7.11 6.39-.11-8.39-5.11-13.39-7.69-7.12-9.6-8.31z" fill-opacity=".4"></path><circle cx="154" cy="262" r="1.5"></circle><circle cx="170.5" cy="259.5" r="1.5"></circle><circle cx="183.5" cy="255.5" r="1.5"></circle><circle cx="194.5" cy="250.5" r="1.5"></circle><circle cx="138.5" cy="261.5" r="1.5"></circle><circle cx="125.5" cy="259.5" r="1.5"></circle><circle cx="115.5" cy="255.5" r="1.5"></circle><path d="M83.5 254.5s-6 28 67 26 77-30 76-36-12.3-10.12-26-13c0 5 1 22 1 22s-8 13-46 17c-29 1-45-9-45-9s-1.5-16-2.5-23.13c-11.5 3.38-22.5 9.13-24.5 16.13z" fill="none" stroke-miterlimit="10" stroke="#000"></path></g><g id="face"><path d="M177 71s-73-2-82 51c0 0-4.5 17.5 1.5 40.5s14 50 14 50 6 10 46 6 75-25 75-25-10-100-16-108S203 72 177 71z" fill="currentColor"></path><path d="M135.5 78.5s1 4-5 9-20 12-25 31 0 29 2 37 7 25 6 35-4.75 16-4.75 16-21.38-60.92-12.82-89S129 81 135.5 78.5z" fill="#fff" fill-opacity=".4"></path><path d="M177 71s-73-2-82 51c0 0-4.5 17.5 1.5 40.5s14 50 14 50 6 10 46 6 75-25 75-25-10-100-16-108-15-15-38.5-14.5z" stroke="#000" stroke-miterlimit="10" fill="none"></path><path d="M177 70s-73-2-82 51c0 0-4.5 17.5 1.5 40.5s14 50 14 50 6 10 46 6 75-25 75-25-10-100-16-108-15-15-38.5-14.5z" stroke="#000" stroke-miterlimit="10" fill="none"></path><path d="M205.5 86.5s-27 2-29 28 9 73 9 73l5.38 23.67 40.62-17.67s-8-94-15-106c-.02.01-8-1-11-1z" fill-opacity=".2" stroke-width=".75" stroke="#000" stroke-miterlimit="10"></path><circle cx="147.5" cy="214.5" r="1.5"></circle><circle cx="165.5" cy="211.5" r="1.5"></circle><circle cx="183.5" cy="206.5" r="1.5"></circle><circle cx="196.5" cy="202.5" r="1.5"></circle><circle cx="208.5" cy="198.5" r="1.5"></circle><circle cx="219.5" cy="194.5" r="1.5"></circle><circle cx="228.5" cy="190.5" r="1.5"></circle><circle cx="130.5" cy="214.5" r="1.5"></circle><circle cx="115.5" cy="210.5" r="1.5"></circle></g><g id="eyes"><path d="M129.5 123.5s-30 3-31 15 8 13 15 14 20-2 26-3 25 1 27-13-17-14-17-14z" fill="currentColor"></path><path d="M116.92 125.8s-15.42 2.7-16.42 12.7 15.5 13 24.25 10.5a97.37 97.37 0 0 1 25.25-3.56c6.5.06 16.78-3.69 16.64-11.31s-9.14-11.63-17.14-11.63-21.12 1.13-21.12 1.13z" fill-opacity=".4" fill="#fff"></path><path d="M130.5 123.5l-8 25.5c1.6-.06 5.38-.65 9-1.2l7-24.8a47.26 47.26 0 0 1-8 .5zM120.77 124.91L113 150h5l7.41-25.94-4.64.85z" fill-opacity=".4" fill="#fff"></path><path d="M129.5 123.5s-30 3-31 15 8 13 15 14 20-2 26-3 25 1 27-13-17-14-17-14z" stroke="#000" stroke-linecap="round" stroke-linejoin="round" fill="none"></path><path d="M106.61 129.46s-6.11 3-6.11 9 5 13 20 11 23-4 28-4 17.29-2.5 18.15-10.25c0 0 .3 10.92-14.42 13.09s-16.25 1.2-21 2.68-28.06 4.23-32.4-7.15c.01.04-3.12-9.4 7.78-14.37z" stroke-width=".75" stroke="#000" stroke-linecap="round" stroke-linejoin="round" fill-opacity=".4"></path></g><g id="mouth"><path d="M105.5 180.5s18 3 32 0 32-11 32-11h1.33a1.13 1.13 0 0 1 .85.65l4.82 17.35v3a3.73 3.73 0 0 1-.94 1.67c-2.53 1.85-9.8 6.88-17.06 9.3a72.67 72.67 0 0 1-25 4c-8.1 0-21.07-4.05-23.57-4.86l-.43-.14-5-19a1 1 0 0 1 1-.97z" fill="currentColor"></path><path d="M105.5 180.5s18 3 32 0 32-11 32-11h1.33a1.13 1.13 0 0 1 .85.65l4.82 17.35v3a3.73 3.73 0 0 1-.94 1.67c-2.53 1.85-9.8 6.88-17.06 9.3a72.67 72.67 0 0 1-25 4c-8.1 0-21.07-4.05-23.57-4.86l-.43-.14-5-19a1 1 0 0 1 1-.97z" stroke-linecap="round" stroke-linejoin="round" stroke="#000" fill="none"></path><path d="M105.5 180.5s18 3 32 0 32-11 32-11h1.33a1.13 1.13 0 0 1 .85.65l4.82 17.35v3a3.73 3.73 0 0 1-.94 1.67c-2.53 1.85-9.8 6.88-17.06 9.3a72.67 72.67 0 0 1-25 4c-8.1 0-21.07-4.05-23.57-4.86l-.43-.14-5-19a1 1 0 0 1 1-.97z" opacity=".1" stroke-linecap="round" stroke-linejoin="round" stroke="#000"></path><path d="M108.33 195.83c0-.11-2.8-10.45-3.4-12.94a6.79 6.79 0 0 1-.3-2 2.1 2.1 0 0 1 .46 0 3 3 0 0 1 1.77.84c.32.85 3 8.16 4 11.88a31.56 31.56 0 0 1 1 5.64l-2.35.78z" opacity=".4"></path><path d="M105.08 181.25h.09a2.55 2.55 0 0 1 1.36.68c.43 1.16 3 8.16 3.91 11.75a33.25 33.25 0 0 1 .95 5.29l-1.7.57-1-3.8c0-.1-2.8-10.45-3.4-12.93a13.31 13.31 0 0 1-.31-1.55h.1m0-.75c-.92 0-1.11 0-.52 2.48s3.44 12.94 3.44 12.94l1.2 4.57 3-1a28 28 0 0 0-1-6c-1-4-4-12-4-12a3.49 3.49 0 0 0-2-1z"></path><path d="M111.5 199.5s17 6 36 2 29-11.87 29-11.87v.88l-.36.94-.44.64-1.7 1.24-7 4.33-7.1 3.34-10.68 3-4.63.79-5.34.51-5.75.16-5.06-.39-7.44-1.37-6.43-1.7-5.07-1.54-.12-.67z" fill-opacity=".4" stroke-miterlimit="10" stroke-width=".75" stroke="#000"></path><path d="M116.51 200.51c1-3 3-11 3-11s4 2 13 2 27-7 27-7 7 6 8 10" stroke-linecap="round" stroke-linejoin="round" stroke="#000" fill="none"></path></g><g id="accessory"><path d="M122.5 88.5v6s3 4 13 3c12.5-.5 16-5 16-5v-6l-2-3a63.26 63.26 0 0 0-15 0c-8 1-12 2-12 5z" fill="currentColor"></path><path d="M122.5 88.5v6s2 3 13 3 16-5 16-5v-6l-2-3a63.26 63.26 0 0 0-15 0c-8 1-12 2-12 5z" stroke="#000" stroke-miterlimit="10" fill="none"></path><path d="M142.5 89.5c.2-.05 1.28-.44 1.5-.5-.63-1.83-4.53-5.64-5.5-5.7-7-.41-11.66 1-13.22 2-1.78 1.16-3.78 2.16 1.22 4.16 3 1.04 12 1.04 16 .04z" fill-opacity=".2" fill="#fff"></path><path d="M142.5 89.5c4-1 10.83-4.83 3.92-5.92s-19.36.59-21.14 1.75-3.78 2.16 1.22 4.16c3 1.01 12 1.01 16 .01z" stroke="#000" stroke-miterlimit="10" fill="none"></path><path d="M130.5 52.5L128.24 84s1.26 3.47 7.26 2.47 7.33-3.44 7.33-3.44L132.5 54.5s-1-3-2-2z" fill="#fff" stroke="#000" stroke-miterlimit="10"></path><path d="M131.5 55.5l7.06 30.26s3.94-.26 3.94-2.26-10-29-10-29-2-4-1 1z" fill="#d0d2d3"></path><path d="M130.5 52.5L128.24 84s1.26 3.47 7.26 2.47 7.33-3.44 7.33-3.44L132.5 54.5s-1-3-2-2z" stroke="#000" stroke-miterlimit="10" fill="none"></path><path d="M144.09 88.72v8l7.41-4.26v-6l-2-3c.5 2.42-1.68 4.05-5.41 5.26z" fill-opacity=".4"></path></g></g></svg>