<svg viewBox="0 0 300 300" width="140" height="140" xmlns="http://www.w3.org/2000/svg"><g style="color: rgb(240, 240, 242);"><g id="body"><g fill="currentColor"><path d="M95.13 227.69S74.5 232.5 73.5 248.5c-.44 7.05 4.25 12.09 9.63 15.53a52.45 52.45 0 0 0 14.79 6.13s-3.16-18.66-2.79-30.66 0-11.81 0-11.81z"></path><path d="M97.5 301.5s2-21 0-35-2-29-2-36 14-26.11 46-28.05 59-1.95 63 18.05 3 30 3 30 2 53 0 55-110-4-110-4z"></path><path d="M204.5 220.5s28 1 29 23-16.9 23.5-25.5 24.74c0 0 1.5-34.74-3.5-47.74z" stroke="#000" stroke-miterlimit="10"></path></g><path d="M95.5 230.5s-7 20 40 23 69-15.69 69.51-30.35-12.33-22.39-48.92-21.52S100.5 212.5 95.5 230.5z" fill="none" stroke="#000" stroke-miterlimit="10"></path><path d="M87.5 232.5s-9 9-9 14 6 16 2 15-7.57-12-5.79-18.48S86.5 229.5 87.5 232.5z" fill-opacity=".4" fill="#fff"></path><path d="M97.5 301.5s2-21 0-35-2-29-2-36 14-26.11 46-28.05 59-1.95 63 18.05 3 30 3 30 2 53 0 55-110-4-110-4z" fill="none" stroke="#000" stroke-miterlimit="10"></path><path d="M102.5 227.5s-4 22 38 21c0 0 56 2 57-26s-69-14-69-14-22 6-26 19z" fill-opacity=".4" stroke="#000" stroke-miterlimit="10"></path><path d="M95.5 230.5s-7 20 40 23 69-15.69 69.51-30.35-12.33-22.39-48.92-21.52S100.5 212.5 95.5 230.5z" fill="none" stroke="#000" stroke-miterlimit="10"></path><path d="M95.13 227.69S74.5 232.5 73.5 248.5c-.44 7.05 4.25 12.09 9.63 15.53a52.45 52.45 0 0 0 14.79 6.13s-3.16-18.66-2.79-30.66 0-11.81 0-11.81zM204.5 220.5s28 1 29 23-16.9 23.5-25.5 24.74c0 0 1.5-34.74-3.5-47.74z" fill="none" stroke="#000" stroke-miterlimit="10"></path><path d="M104.5 263.5a4.45 4.45 0 0 0 2 5c3 2 7 0 6-2s-6-6-8-3zM109.5 276.5s-5-1-5 9a161.75 161.75 0 0 0 1 18l11 1s-3-5-3-14-1-12-4-14z" fill-opacity=".4" fill="#fff"></path><path d="M224.9 263.3s-1.4 20.2 16.6 39.2h-22s-7.35-6.33-11.18-20.67l.18-13.33s9.8-.4 16.4-5.2z" fill="#6d6e70" stroke="#000" stroke-miterlimit="10"></path><path d="M208.5 281.5a10.58 10.58 0 0 1 11-6c8 1 7.71 3 7.71 3M215.68 298s4.82-4.52 10.82-4.52a18.1 18.1 0 0 1 9.41 2.26" fill="none" stroke="#000" stroke-miterlimit="10"></path><path d="M217.85 223.44s9.65 6.06 7.65 17.06-8 16.09-17 18.54v9.46s24.08-.06 25-22.53c.04.03 2.71-12.58-15.65-22.53z" opacity=".2"></path><path d="M76.5 302.5s9-10 8-24l-1-14 14 6s2 24 0 31-21 1-21 1z" fill="#6d6e70" stroke="#000" stroke-miterlimit="10"></path><path d="M97.5 282.5s-3.87-3-12.94-1M97.5 298.5s-2.26-5.48-16.63-2.74" fill="none" stroke="#000" stroke-miterlimit="10"></path><path d="M90.5 270.5s7 25 0 32l7-1v-31l-8.76-3.76zM85.5 273.5s5 22-2 29-4.6-3.27-4.6-3.27 4.73-4.71 5.66-15.22l.94-10.51M225.8 272.89s-12.3-6.39-12.3.61 11 28 14 31-6 0-6 0-10.71-12.76-12.36-19.88-.64-16.12-.64-16.12l16.4-5.2z" fill-opacity=".2"></path><path d="M197.51 304.5s4-34 0-53c-2.39-11.36-2.58-11.5-2.55-11.32 0 0 8.57-4.37 10.06-17s3.49 45.35 3.49 45.35v37z" fill-opacity=".2"></path><circle cx="104" cy="254" r="1.5"></circle><circle cx="115.5" cy="258.5" r="1.5"></circle><circle cx="129.5" cy="261.5" r="1.5"></circle><circle cx="146.5" cy="262.5" r="1.5"></circle><circle cx="164.5" cy="260.5" r="1.5"></circle><circle cx="180.5" cy="255.5" r="1.5"></circle><circle cx="193.5" cy="248.5" r="1.5"></circle><circle cx="202.5" cy="241.5" r="1.5"></circle><path d="M139.5 181.5l1 39s0 7 10 7 11-10 11-10a155.16 155.16 0 0 1-3-16c-1-8 0-20 0-20h-19z" fill="#6d6e70" stroke="#000" stroke-miterlimit="10"></path><path d="M158 185.5s.33 3.92-18.35 2M158 197.5s0 6-17.5 1M160 210.5s-2.35 7-20 2" fill="none" stroke="#000" stroke-miterlimit="10"></path><path d="M151.5 183.5a14.82 14.82 0 0 0 0 10c2 5 5 18 4 24a61.38 61.38 0 0 1-2.35 9.74s9.35-4.74 8.35-9.74-2.37-8.51-3.18-17.76a104.59 104.59 0 0 1 .18-18.24h-6.4z" fill-opacity=".2"></path></g><g id="face"><path d="M143 89s-39 6-64 66 15.5 70.5 34.5 74.5 85 13 102-27-40-117-72.5-113.5z" fill="currentColor"></path><path d="M143 88s-39 6-64 66 15.5 70.5 34.5 74.5 85 13 102-27-40-117-72.5-113.5z" fill="none" stroke="#000" stroke-miterlimit="10"></path><path d="M99 121.07S122 96 139.5 98.5a137.38 137.38 0 0 1 21.88 7.59s4.12-7.59 6.12-8.59-17-9-23-9c-11.5.5-35 16.14-45.5 32.57z" fill-opacity=".2" fill="#fff"></path><path d="M143 89s-39 6-64 66 15.5 70.5 34.5 74.5 85 13 102-27-40-117-72.5-113.5z" fill="none" stroke="#000" stroke-miterlimit="10"></path><path d="M161.38 106.09a20.31 20.31 0 0 0-1.88 4.41c-1 6 2 11 9 19s20 27 21 45 1 35-13 45-24.21 14.08-24.21 14.08 34.71.42 47.8-19.51c11.41-15.58 10.59-36 0-59.77-11.09-27.31-33.81-44.6-33.81-44.6z" fill-opacity=".2"></path><path d="M167.41 97.44c-2.41-.44-5.91 9.06-5.91 9.06s27 14 39 48 8.86 41 5.43 50-17.62 24.63-36 27.81 37.6-2.82 45.6-29.82c11.5-39.5-22.87-80.23-22.87-80.23S175 101 167.41 97.44z" fill-opacity=".1"></path><path d="M91.5 140.5s-14 24-12 43 12 26 19 31 9.2 13.33 9.2 13.33S72 224 71.08 186.84c0 0 3.19-39.76 30.31-68.55L113.22 108S95.5 132.5 91.5 140.5z" fill-opacity=".4" fill="#fff"></path><circle cx="138.5" cy="106.5" r="2"></circle><circle cx="111" cy="115" r="2"></circle><circle cx="164" cy="117" r="2"></circle><circle cx="185" cy="136" r="2"></circle><circle cx="194" cy="158" r="2"></circle><circle cx="201" cy="181" r="2"></circle><circle cx="200" cy="205" r="2"></circle><circle cx="183" cy="218" r="2"></circle><circle cx="164" cy="223" r="2"></circle><circle cx="142" cy="223" r="2"></circle><circle cx="118" cy="221" r="2"></circle><circle cx="97" cy="218" r="2"></circle><path d="M139.5 98.5s35 3 57 48 13.83 72-24.08 85c-54.92 7-79.92-7-91-16.46-1.5.92-21-20.3-3-60.55C95.74 116 122.5 97.5 139.5 98.5z" fill="none" stroke="#000" stroke-miterlimit="10"></path></g><g id="eyes"><path d="M127.5 124.5s-43-1-45 16c-1.5 15.5 25 13 25 13h35s27 0 27-13-11-17-42-16z" fill="currentColor"></path><path d="M127.5 124.5s-43-1-45 16c-1 15 21 13 25 13h35s27 0 27-13-11-17-42-16z" stroke-width=".75" stroke="#000" stroke-linecap="round" stroke-linejoin="round" fill="none"></path><path d="M126 132c-15.5.5-28.5-1.5-30.5 6.5-2 9 16 7 22 7s27-1 30-1 10-1 10-3c0-8-15-10-31.5-9.5z" fill="#461917" stroke-width=".5" stroke="#000" stroke-linecap="round" stroke-linejoin="round"></path><path d="M90.5 140.5c0 1-5 9 32 8s35-4.33 35-7.67-8.64-9.23-21.32-8.78-40.68-3.55-45.68 8.45z" fill-opacity=".4" stroke-width=".75" stroke="#000" stroke-linecap="round" stroke-linejoin="round"></path><ellipse cx="112" cy="139" rx="2.5" ry="3.5" fill="#fff100"></ellipse><ellipse cx="138" cy="139" rx="2.5" ry="3.5" fill="#fff100"></ellipse><path d="M93.5 129.5s27-3 41-2c11 0 24 3 29 10s1.39 10.59-.3 11.8 6.3-2.8 6.3-8.8-1.61-11.29-14.3-14.65-30.2-1.18-33.95-1.26-22.75 1.91-27.75 4.91z" fill="#fff" fill-opacity=".2" stroke-width=".75" stroke="#000" stroke-linecap="round" stroke-linejoin="round"></path></g><g id="mouth"><path d="M109.5 197.5c0 4 1 5 1 5h34c10 0 21-1 21-1v-23l-1-4h-2c-2 0-54.5.5-54.5.5v11z" fill="currentColor"></path><path d="M163.5 174.5v25s-52 1.5-53.75 1l.61 1.79 28.9.21s19.65-.79 21.7-.65A9 9 0 0 0 165 201l.41-22.84S164 174 163.5 174.5z" opacity=".4"></path><path d="M109.5 197.5c0 4 1 5 1 5h34c10 0 21-1 21-1v-23l-1-4h-2c-2 0-54.5.5-54.5.5v11z" stroke-miterlimit="10" stroke="#000" fill="none"></path><path d="M113.5 200.5h27c10 0 23-1 23-1v-24" stroke-width=".5" stroke-linecap="round" stroke-linejoin="round" stroke="#000" fill="none"></path><path stroke-width=".5" stroke-miterlimit="10" stroke="#000" fill="none" d="M163.5 199.5l1.5 1.5"></path><path d="M162 177v12" stroke-width=".5" stroke-linecap="round" stroke-linejoin="round" stroke="#000" fill="none"></path><path d="M112.5 177.5h27c9 0 20-1 20-1v20l-54 1a34.21 34.21 0 0 1 2-11 44.27 44.27 0 0 1 5-9z" fill="#f6921e" stroke-width="1.2" stroke-linecap="round" stroke-linejoin="round" stroke="#000"></path><path d="M159 176.5s-3 7.5-4 11.5a87 87 0 0 0-1.59 8.61l-12.91.19s-1-2.3 1-7.3 5-12 5-12 11-.5 12.5-1zM128.5 196.89h-11a19.28 19.28 0 0 1 2-11.22c3-6.12 3.75-8.16 3.75-8.16h11.56s-1.31 3.06-2.31 6.12-4 6.12-4 10.2z" stroke-width=".75" fill="#f9ec31" stroke-miterlimit="10" stroke="#000"></path><path d="M135.13 177.5h11.37l-5.43 13.25a8.08 8.08 0 0 0-.82 4c.25 1.89 0 2.25 0 2.25H128.5a23.82 23.82 0 0 1 .92-7.35c1.08-3.08 2.1-3 3.59-7.58s2.12-4.57 2.12-4.57z" fill="#f05a27" stroke-width=".75" stroke-linecap="round" stroke-linejoin="round" stroke="#000"></path></g><g id="accessory"><path d="M135 83s-13 2-13 5a54.33 54.33 0 0 0 .5 6.5s4 4 13 3a37.83 37.83 0 0 0 16-6v-5l-3-4s-5-1-13.5.5z" fill="currentColor"></path><path d="M135 83s-13 2-13 5a54.33 54.33 0 0 0 .5 6.5s4 4 13 3a37.83 37.83 0 0 0 16-6v-5l-3-4s-5-1-13.5.5z" stroke="#000" stroke-miterlimit="10" fill="none"></path><path d="M123.5 88.5s2 3 10 2 14-3 15-5 1.19-2.37-1.41-3.18-13.22.86-16.41 1.52-8.18 1.66-7.18 4.66z" fill-opacity=".2" fill="#fff" stroke="#000" stroke-miterlimit="10"></path><path d="M123.5 88.5s2 3 10 2a47.41 47.41 0 0 0 11.86-2.78c-.38.16-4.11-2.4-4.11-2.4s1.43-3.14 2-3.18a105.65 105.65 0 0 0-12.56 1.69c-3.19.67-8.19 1.67-7.19 4.67z" fill-opacity=".2" fill="#fff"></path><path d="M139.5 66.5s-4-16 3-27c0 0-2-7-6-3 0 0-4 3-5 15a66 66 0 0 0 2 22s5 0 6-7z" fill="#716558" stroke="#000" stroke-miterlimit="10"></path><path d="M119.5 36.5s1 13 3 19 4 11 6 16 5 7 6 5 0-3-2-10-5-18-5-25v-7a10.34 10.34 0 0 0-4-1c-2 0-4 1-4 3z" fill="#9a8479" stroke="#000" stroke-miterlimit="10"></path><path d="M110.5 50.5s8 8 10 13 5 13 6 10-3-18-6-22a61.22 61.22 0 0 0-5-6s-5 0-5 5z" fill="#716558" stroke="#000" stroke-miterlimit="10"></path><path d="M136.5 86.5s-5-19-19-28-20-7-20-7-4 3 1 6 12 5 18 10 12 14 12 16 3 5 8 3z" fill="#c1b49a" stroke="#000" stroke-miterlimit="10"></path><path d="M134.5 73.5s6-25 16-32 9 2 9 2v4s-4-2-8 5-9 19-9 23v8s-4 5-6 3c0 0-3.24-7.59-3.12-8.3s1.12-4.7 1.12-4.7z" fill="#c1b49a" stroke="#000" stroke-miterlimit="10"></path><path d="M144.36 88.12v7.11l7.14-3.73.07-4.64L150 84a11.59 11.59 0 0 1-5.64 4.12z" fill-opacity=".2"></path></g></g></svg>